<svg width="210" height="28" viewBox="0 0 210 28" fill="none" xmlns="http://www.w3.org/2000/svg">
<path d="M203.47 19.1982C202.517 19.1982 201.659 19.0295 200.896 18.6922C200.148 18.3402 199.554 17.8708 199.114 17.2842C198.674 16.6828 198.439 16.0155 198.41 15.2822H201.006C201.05 15.7955 201.292 16.2282 201.732 16.5802C202.187 16.9175 202.751 17.0862 203.426 17.0862C204.13 17.0862 204.673 16.9542 205.054 16.6902C205.45 16.4115 205.648 16.0595 205.648 15.6342C205.648 15.1795 205.428 14.8422 204.988 14.6222C204.563 14.4022 203.881 14.1602 202.942 13.8962C202.033 13.6468 201.292 13.4048 200.72 13.1702C200.148 12.9355 199.649 12.5762 199.224 12.0922C198.813 11.6082 198.608 10.9702 198.608 10.1782C198.608 9.53284 198.799 8.94617 199.18 8.41817C199.561 7.87551 200.104 7.45018 200.808 7.14217C201.527 6.83418 202.348 6.68018 203.272 6.68018C204.651 6.68018 205.758 7.03217 206.594 7.73617C207.445 8.42551 207.899 9.37151 207.958 10.5742H205.45C205.406 10.0315 205.186 9.59884 204.79 9.27617C204.394 8.95351 203.859 8.79218 203.184 8.79218C202.524 8.79218 202.018 8.91684 201.666 9.16617C201.314 9.41551 201.138 9.74551 201.138 10.1562C201.138 10.4788 201.255 10.7502 201.49 10.9702C201.725 11.1902 202.011 11.3662 202.348 11.4982C202.685 11.6155 203.184 11.7695 203.844 11.9602C204.724 12.1948 205.443 12.4368 206 12.6862C206.572 12.9208 207.063 13.2728 207.474 13.7422C207.885 14.2115 208.097 14.8348 208.112 15.6122C208.112 16.3015 207.921 16.9175 207.54 17.4602C207.159 18.0028 206.616 18.4282 205.912 18.7362C205.223 19.0442 204.409 19.1982 203.47 19.1982Z" fill="white"/>
<path d="M196.602 12.6422C196.602 13.0968 196.572 13.5075 196.514 13.8742H187.252C187.325 14.8422 187.684 15.6195 188.33 16.2062C188.975 16.7928 189.767 17.0862 190.706 17.0862C192.055 17.0862 193.008 16.5215 193.566 15.3922H196.272C195.905 16.5068 195.238 17.4235 194.27 18.1422C193.316 18.8462 192.128 19.1982 190.706 19.1982C189.547 19.1982 188.506 18.9415 187.582 18.4282C186.672 17.9002 185.954 17.1668 185.426 16.2282C184.912 15.2748 184.656 14.1748 184.656 12.9282C184.656 11.6815 184.905 10.5888 185.404 9.65018C185.917 8.69684 186.628 7.96351 187.538 7.45017C188.462 6.93684 189.518 6.68018 190.706 6.68018C191.85 6.68018 192.869 6.92951 193.764 7.42817C194.658 7.92684 195.355 8.63084 195.854 9.54018C196.352 10.4348 196.602 11.4688 196.602 12.6422ZM193.984 11.8502C193.969 10.9262 193.639 10.1855 192.994 9.62817C192.348 9.07084 191.549 8.79218 190.596 8.79218C189.73 8.79218 188.99 9.07084 188.374 9.62817C187.758 10.1708 187.391 10.9115 187.274 11.8502H193.984Z" fill="white"/>
<path d="M179.556 8.63818C179.923 8.02218 180.407 7.54551 181.008 7.20818C181.624 6.85618 182.35 6.68018 183.186 6.68018V9.27617H182.548C181.566 9.27617 180.818 9.52551 180.304 10.0242C179.806 10.5228 179.556 11.3882 179.556 12.6202V19.0002H177.048V6.87818H179.556V8.63818Z" fill="white"/>
<path d="M173.739 6.87793V18.9999H171.231V17.5699C170.835 18.0686 170.315 18.4646 169.669 18.7579C169.039 19.0366 168.364 19.1759 167.645 19.1759C166.692 19.1759 165.834 18.9779 165.071 18.5819C164.323 18.1859 163.729 17.5993 163.289 16.8219C162.864 16.0446 162.651 15.1059 162.651 14.0059V6.87793H165.137V13.6319C165.137 14.7173 165.409 15.5533 165.951 16.1399C166.494 16.7119 167.235 16.9979 168.173 16.9979C169.112 16.9979 169.853 16.7119 170.395 16.1399C170.953 15.5533 171.231 14.7173 171.231 13.6319V6.87793H173.739Z" fill="white"/>
<path d="M157.502 8.92377V15.6338C157.502 16.0884 157.604 16.4184 157.81 16.6238C158.03 16.8144 158.396 16.9098 158.91 16.9098H160.45V18.9998H158.47C157.34 18.9998 156.475 18.7358 155.874 18.2078C155.272 17.6798 154.972 16.8218 154.972 15.6338V8.92377H153.542V6.87777H154.972V3.86377H157.502V6.87777H160.45V8.92377H157.502Z" fill="white"/>
<path d="M146.405 6.68018C147.358 6.68018 148.209 6.87818 148.957 7.27417C149.719 7.67017 150.313 8.25684 150.739 9.03417C151.164 9.81151 151.377 10.7502 151.377 11.8502V19.0002H148.891V12.2242C148.891 11.1388 148.619 10.3102 148.077 9.73817C147.534 9.15151 146.793 8.85818 145.855 8.85818C144.916 8.85818 144.168 9.15151 143.611 9.73817C143.068 10.3102 142.797 11.1388 142.797 12.2242V19.0002H140.289V6.87818H142.797V8.26417C143.207 7.76551 143.728 7.37684 144.359 7.09818C145.004 6.81951 145.686 6.68018 146.405 6.68018Z" fill="white"/>
<path d="M137.821 12.6422C137.821 13.0968 137.791 13.5075 137.733 13.8742H128.471C128.544 14.8422 128.903 15.6195 129.549 16.2062C130.194 16.7928 130.986 17.0862 131.925 17.0862C133.274 17.0862 134.227 16.5215 134.785 15.3922H137.491C137.124 16.5068 136.457 17.4235 135.489 18.1422C134.535 18.8462 133.347 19.1982 131.925 19.1982C130.766 19.1982 129.725 18.9415 128.801 18.4282C127.891 17.9002 127.173 17.1668 126.645 16.2282C126.131 15.2748 125.875 14.1748 125.875 12.9282C125.875 11.6815 126.124 10.5888 126.623 9.65018C127.136 8.69684 127.847 7.96351 128.757 7.45017C129.681 6.93684 130.737 6.68018 131.925 6.68018C133.069 6.68018 134.088 6.92951 134.983 7.42817C135.877 7.92684 136.574 8.63084 137.073 9.54018C137.571 10.4348 137.821 11.4688 137.821 12.6422ZM135.203 11.8502C135.188 10.9262 134.858 10.1855 134.213 9.62817C133.567 9.07084 132.768 8.79218 131.815 8.79218C130.949 8.79218 130.209 9.07084 129.593 9.62817C128.977 10.1708 128.61 10.9115 128.493 11.8502H135.203Z" fill="white"/>
<path d="M124.613 3.70996L118.871 19H115.967L110.203 3.70996H112.887L117.419 16.426L121.973 3.70996H124.613Z" fill="white"/>
<path d="M89.9741 12.8842C89.9741 11.6669 90.2234 10.5889 90.7221 9.65021C91.2354 8.71155 91.9248 7.98555 92.7901 7.47221C93.6701 6.94421 94.6455 6.68022 95.7161 6.68022C96.5081 6.68022 97.2855 6.85622 98.0481 7.20822C98.8255 7.54555 99.4415 8.00022 99.8961 8.57221V2.72021H102.426V19.0002H99.8961V17.1742C99.4855 17.7609 98.9135 18.2449 98.1801 18.6262C97.4615 19.0075 96.6328 19.1982 95.6941 19.1982C94.6381 19.1982 93.6701 18.9342 92.7901 18.4062C91.9248 17.8635 91.2354 17.1155 90.7221 16.1622C90.2234 15.1942 89.9741 14.1015 89.9741 12.8842ZM99.8961 12.9282C99.8961 12.0922 99.7201 11.3662 99.3681 10.7502C99.0308 10.1342 98.5834 9.66488 98.0261 9.34222C97.4688 9.01955 96.8674 8.85821 96.2221 8.85821C95.5768 8.85821 94.9755 9.01955 94.4181 9.34222C93.8608 9.65022 93.4061 10.1122 93.0541 10.7282C92.7168 11.3295 92.5481 12.0482 92.5481 12.8842C92.5481 13.7202 92.7168 14.4535 93.0541 15.0842C93.4061 15.7149 93.8608 16.1989 94.4181 16.5362C94.9901 16.8589 95.5914 17.0202 96.2221 17.0202C96.8674 17.0202 97.4688 16.8589 98.0261 16.5362C98.5834 16.2135 99.0308 15.7442 99.3681 15.1282C99.7201 14.4975 99.8961 13.7642 99.8961 12.9282Z" fill="white"/>
<path d="M75.064 12.8842C75.064 11.6668 75.3133 10.5888 75.812 9.65018C76.3253 8.71151 77.0146 7.98551 77.88 7.47217C78.76 6.94418 79.728 6.68018 80.784 6.68018C81.7373 6.68018 82.566 6.87084 83.27 7.25217C83.9886 7.61884 84.5606 8.08084 84.986 8.63818V6.87818H87.516V19.0002H84.986V17.1962C84.5606 17.7682 83.9813 18.2448 83.248 18.6262C82.5146 19.0075 81.6786 19.1982 80.74 19.1982C79.6986 19.1982 78.7453 18.9342 77.88 18.4062C77.0146 17.8635 76.3253 17.1155 75.812 16.1622C75.3133 15.1942 75.064 14.1015 75.064 12.8842ZM84.986 12.9282C84.986 12.0922 84.81 11.3662 84.458 10.7502C84.1206 10.1342 83.6733 9.66484 83.116 9.34218C82.5586 9.01951 81.9573 8.85818 81.312 8.85818C80.6666 8.85818 80.0653 9.01951 79.508 9.34218C78.9506 9.65018 78.496 10.1122 78.144 10.7282C77.8066 11.3295 77.638 12.0482 77.638 12.8842C77.638 13.7202 77.8066 14.4535 78.144 15.0842C78.496 15.7148 78.9506 16.1988 79.508 16.5362C80.08 16.8588 80.6813 17.0202 81.312 17.0202C81.9573 17.0202 82.5586 16.8588 83.116 16.5362C83.6733 16.2135 84.1206 15.7442 84.458 15.1282C84.81 14.4975 84.986 13.7642 84.986 12.9282Z" fill="white"/>
<path d="M73.4318 12.6422C73.4318 13.0968 73.4025 13.5075 73.3438 13.8742H64.0818C64.1552 14.8422 64.5145 15.6195 65.1598 16.2062C65.8052 16.7928 66.5972 17.0862 67.5358 17.0862C68.8852 17.0862 69.8385 16.5215 70.3958 15.3922H73.1018C72.7352 16.5068 72.0678 17.4235 71.0998 18.1422C70.1465 18.8462 68.9585 19.1982 67.5358 19.1982C66.3772 19.1982 65.3358 18.9415 64.4118 18.4282C63.5025 17.9002 62.7838 17.1668 62.2558 16.2282C61.7425 15.2748 61.4858 14.1748 61.4858 12.9282C61.4858 11.6815 61.7352 10.5888 62.2338 9.65018C62.7472 8.69684 63.4585 7.96351 64.3678 7.45017C65.2918 6.93684 66.3478 6.68018 67.5358 6.68018C68.6798 6.68018 69.6992 6.92951 70.5938 7.42817C71.4885 7.92684 72.1852 8.63084 72.6838 9.54018C73.1825 10.4348 73.4318 11.4688 73.4318 12.6422ZM70.8138 11.8502C70.7992 10.9262 70.4692 10.1855 69.8238 9.62817C69.1785 9.07084 68.3792 8.79218 67.4258 8.79218C66.5605 8.79218 65.8198 9.07084 65.2038 9.62817C64.5878 10.1708 64.2212 10.9115 64.1038 11.8502H70.8138Z" fill="white"/>
<path d="M54.3047 6.68022C55.2287 6.68022 56.05 6.87821 56.7687 7.27421C57.502 7.67021 58.074 8.25688 58.4847 9.03421C58.91 9.81155 59.1227 10.7502 59.1227 11.8502V19.0002H56.6367V12.2242C56.6367 11.1389 56.3653 10.3102 55.8227 9.73821C55.28 9.15155 54.5393 8.85821 53.6007 8.85821C52.662 8.85821 51.914 9.15155 51.3567 9.73821C50.814 10.3102 50.5427 11.1389 50.5427 12.2242V19.0002H48.0347V2.72021H50.5427V8.28621C50.968 7.77288 51.5033 7.37688 52.1487 7.09821C52.8087 6.81955 53.5273 6.68022 54.3047 6.68022Z" fill="white"/>
<path d="M41.913 15.876H35.511L34.411 19H31.793L37.271 3.68799H40.175L45.653 19H43.013L41.913 15.876ZM41.209 13.83L38.723 6.72399L36.215 13.83H41.209Z" fill="white"/>
<path d="M23.9236 19.1982C22.7796 19.1982 21.7456 18.9415 20.8216 18.4282C19.8976 17.9002 19.1716 17.1668 18.6436 16.2282C18.1156 15.2748 17.8516 14.1748 17.8516 12.9282C17.8516 11.6962 18.1229 10.6035 18.6656 9.65018C19.2082 8.69684 19.9489 7.96351 20.8876 7.45017C21.8262 6.93684 22.8749 6.68018 24.0336 6.68018C25.1922 6.68018 26.2409 6.93684 27.1796 7.45017C28.1182 7.96351 28.8589 8.69684 29.4016 9.65018C29.9442 10.6035 30.2156 11.6962 30.2156 12.9282C30.2156 14.1602 29.9369 15.2528 29.3796 16.2062C28.8222 17.1595 28.0596 17.9002 27.0916 18.4282C26.1382 18.9415 25.0822 19.1982 23.9236 19.1982ZM23.9236 17.0202C24.5689 17.0202 25.1702 16.8662 25.7276 16.5582C26.2996 16.2502 26.7616 15.7882 27.1136 15.1722C27.4656 14.5562 27.6416 13.8082 27.6416 12.9282C27.6416 12.0482 27.4729 11.3075 27.1356 10.7062C26.7982 10.0902 26.3509 9.62818 25.7936 9.32018C25.2362 9.01218 24.6349 8.85818 23.9896 8.85818C23.3442 8.85818 22.7429 9.01218 22.1856 9.32018C21.6429 9.62818 21.2102 10.0902 20.8876 10.7062C20.5649 11.3075 20.4036 12.0482 20.4036 12.9282C20.4036 14.2335 20.7336 15.2455 21.3936 15.9642C22.0682 16.6682 22.9116 17.0202 23.9236 17.0202Z" fill="white"/>
<path d="M12.716 8.11021C12.32 7.34754 11.77 6.77554 11.066 6.39421C10.362 5.99821 9.54797 5.80021 8.62397 5.80021C7.61197 5.80021 6.70997 6.02754 5.91797 6.48221C5.12597 6.93687 4.50263 7.58221 4.04797 8.41821C3.60796 9.25421 3.38797 10.2222 3.38797 11.3222C3.38797 12.4222 3.60796 13.3975 4.04797 14.2482C4.50263 15.0842 5.12597 15.7295 5.91797 16.1842C6.70997 16.6389 7.61197 16.8662 8.62397 16.8662C9.98797 16.8662 11.0953 16.4849 11.946 15.7222C12.7966 14.9595 13.3173 13.9255 13.508 12.6202H7.76596V10.6182H16.192V12.5762C16.0306 13.7642 15.6053 14.8569 14.916 15.8542C14.2413 16.8515 13.354 17.6509 12.254 18.2522C11.1686 18.8389 9.95863 19.1322 8.62397 19.1322C7.18663 19.1322 5.87396 18.8022 4.68597 18.1422C3.49796 17.4675 2.55196 16.5362 1.84797 15.3482C1.15863 14.1602 0.813965 12.8182 0.813965 11.3222C0.813965 9.82621 1.15863 8.48421 1.84797 7.29621C2.55196 6.10821 3.49796 5.18421 4.68597 4.52421C5.88863 3.84954 7.2013 3.51221 8.62397 3.51221C10.252 3.51221 11.6966 3.91554 12.958 4.72221C14.234 5.51421 15.158 6.64354 15.73 8.11021H12.716Z" fill="white"/>
</svg>
