<svg width="20" height="14" viewBox="0 0 20 14" fill="none" xmlns="http://www.w3.org/2000/svg">
<path d="M6.07998 1.09594C5.78473 1.69461 4.29754 4.66764 2.76661 7.69141C1.24662 10.7253 0 13.2316 0 13.2519C0 13.2722 1.02791 13.2925 2.27453 13.2925H4.54905L4.75682 12.9069C4.86617 12.704 5.86128 10.7355 6.96573 8.5336L8.97781 4.52558L7.85149 2.26283C7.22818 1.02491 6.70329 0.0102241 6.67048 7.72476e-05C6.63768 7.72476e-05 6.37523 0.497274 6.07998 1.09594Z" fill="#050E15"/>
<path d="M14.9945 0.832027C14.7649 1.29878 13.7807 3.25713 12.8074 5.19518L11.0469 8.71615L12.1623 10.9485C12.7746 12.1864 13.3105 13.1909 13.3542 13.1909C13.387 13.1909 13.5948 12.8358 13.8135 12.3995C14.0213 11.9733 15.41 9.19305 16.8972 6.24031C18.3844 3.27742 19.6966 0.669677 19.806 0.426152L20.0028 -1.63799e-05H17.7064H15.41L14.9945 0.832027Z" fill="#050E15"/>
</svg>
