<svg xmlns="http://www.w3.org/2000/svg" width="36" height="36" viewBox="0 0 36 36" fill="none" id="svg-2111020249_1166">
<path d="M4.5 17.1875C4.5 16.0829 5.39543 15.1875 6.5 15.1875H6.75V29.8125H6.5C5.39543 29.8125 4.5 28.9171 4.5 27.8125V17.1875Z" fill="white"/>
<path d="M8.75 32.0625C7.64543 32.0625 6.75 31.1671 6.75 30.0625L6.75 29.8125L29.25 29.8125L29.25 30.0625C29.25 31.1671 28.3546 32.0625 27.25 32.0625L8.75 32.0625Z" fill="white"/>
<path d="M8.75 12.9375C7.64543 12.9375 6.75 13.8329 6.75 14.9375L6.75 15.1875L29.25 15.1875L29.25 14.9375C29.25 13.8329 28.3546 12.9375 27.25 12.9375L8.75 12.9375Z" fill="white"/>
<path d="M31.5 17.1875C31.5 16.0829 30.6046 15.1875 29.5 15.1875H29.25V29.8125H29.5C30.6046 29.8125 31.5 28.9171 31.5 27.8125V17.1875Z" fill="white"/>
<rect width="3.375" height="3.375" rx="1.6875" transform="matrix(-1 0 0 1 19.6875 20.8125)" fill="white"/>
<path fill-rule="evenodd" clip-rule="evenodd" d="M21.9375 9.79167V11.25H24.1875V9.79167C24.1875 6.24784 21.4173 3.375 18 3.375C14.5827 3.375 11.8125 6.24784 11.8125 9.79167V11.25H14.0625V9.79167C14.0625 7.5365 15.8254 5.70833 18 5.70833C20.1746 5.70833 21.9375 7.5365 21.9375 9.79167Z" fill="white"/>
</svg>