<svg xmlns="http://www.w3.org/2000/svg" width="36" height="36" viewBox="0 0 36 36" fill="none" id="svg1512811545_1378">
<path d="M5.26167 6.25C5.26167 6.05109 5.34068 5.86032 5.48134 5.71967C5.62199 5.57902 5.81275 5.5 6.01167 5.5H11.2617V7H5.26167V6.25ZM3.75 13V7.75C3.75 7.55109 3.82902 7.36032 3.96967 7.21967C4.11032 7.07902 4.30109 7 4.5 7H5.25V13H3.75ZM30.74 6.25C30.74 6.05109 30.661 5.86032 30.5203 5.71967C30.3797 5.57902 30.1889 5.5 29.99 5.5H24.74V7H30.74V6.25ZM32.2517 13V7.75C32.2517 7.55109 32.1726 7.36032 32.032 7.21967C31.8913 7.07902 31.7006 7 31.5017 7H30.7517V13H32.2517ZM5.26167 28.7567C5.26167 28.9556 5.34068 29.1463 5.48134 29.287C5.62199 29.4276 5.81275 29.5067 6.01167 29.5067H11.2617V28.0067H5.26167V28.7567ZM3.75 22.0067V27.2567C3.75 27.4556 3.82902 27.6463 3.96967 27.787C4.11032 27.9276 4.30109 28.0067 4.5 28.0067H5.25V22.0067H3.75ZM30.74 28.7567C30.74 28.9556 30.661 29.1463 30.5203 29.287C30.3797 29.4276 30.1889 29.5067 29.99 29.5067H24.74V28.0067H30.74V28.7567ZM32.2517 22.0067V27.2567C32.2517 27.4556 32.1726 27.6463 32.032 27.787C31.8913 27.9276 31.7006 28.0067 31.5017 28.0067H30.7517V22.0067H32.2517Z" fill="white"/>
<path d="M18 22.5C20.4853 22.5 22.5 20.4853 22.5 18C22.5 15.5147 20.4853 13.5 18 13.5C15.5147 13.5 13.5 15.5147 13.5 18C13.5 20.4853 15.5147 22.5 18 22.5Z" stroke="white" stroke-width="1.5" stroke-linecap="round" stroke-linejoin="round"/>
</svg>