<svg xmlns="http://www.w3.org/2000/svg" width="36" height="36" viewBox="0 0 36 36" fill="none" id="svg-2023498974_793">
<path d="M30.5276 19.7819C30.5276 27.8643 24.8699 31.9054 18.1454 34.2493C17.7933 34.3686 17.4108 34.3629 17.0624 34.2331C10.3217 31.9054 4.66406 27.8643 4.66406 19.7819V8.46661C4.66406 8.03789 4.83437 7.62674 5.13752 7.32359C5.44066 7.02044 5.85182 6.85014 6.28053 6.85014C9.51347 6.85014 13.5546 4.91037 16.3673 2.45334C16.7098 2.16076 17.1454 2 17.5958 2C18.0463 2 18.4819 2.16076 18.8243 2.45334C21.6532 4.92654 25.6782 6.85014 28.9111 6.85014C29.3398 6.85014 29.751 7.02044 30.0541 7.32359C30.3573 7.62674 30.5276 8.03789 30.5276 8.46661V19.7819Z" stroke="white" stroke-width="1.61647"/>
<path d="M12.75 18.1646L15.9829 21.3975L22.4488 14.9316" stroke="white" stroke-width="1.61647"/>
</svg>