<svg xmlns="http://www.w3.org/2000/svg" width="36" height="36" viewBox="0 0 36 36" fill="none" id="svg-2104313390_1421">
<path d="M3.879 26.1198C3.31635 26.6823 3.00017 27.4452 3 28.2408V31.4988C3 31.8966 3.15804 32.2781 3.43934 32.5594C3.72064 32.8407 4.10218 32.9988 4.5 32.9988H9C9.39782 32.9988 9.77936 32.8407 10.0607 32.5594C10.342 32.2781 10.5 31.8966 10.5 31.4988V29.9988C10.5 29.601 10.658 29.2194 10.9393 28.9381C11.2206 28.6568 11.6022 28.4988 12 28.4988H13.5C13.8978 28.4988 14.2794 28.3407 14.5607 28.0594C14.842 27.7781 15 27.3966 15 26.9988V25.4988C15 25.101 15.158 24.7194 15.4393 24.4381C15.7206 24.1568 16.1022 23.9988 16.5 23.9988H16.758C17.5536 23.9986 18.3165 23.6824 18.879 23.1198L20.1 21.8988C22.1848 22.625 24.4543 22.6222 26.5372 21.8909C28.6202 21.1596 30.3933 19.743 31.5665 17.873C32.7398 16.0029 33.2436 13.79 32.9957 11.5964C32.7477 9.40273 31.7627 7.35815 30.2016 5.79713C28.6406 4.23611 26.596 3.25105 24.4024 3.00311C22.2087 2.75517 19.9959 3.25902 18.1258 4.43224C16.2557 5.60546 14.8392 7.37858 14.1079 9.46156C13.3766 11.5445 13.3738 13.814 14.1 15.8988L3.879 26.1198Z" stroke="white" stroke-width="2" stroke-linecap="round" stroke-linejoin="bevel"/>
<path d="M24.75 12C25.1642 12 25.5 11.6642 25.5 11.25C25.5 10.8358 25.1642 10.5 24.75 10.5C24.3358 10.5 24 10.8358 24 11.25C24 11.6642 24.3358 12 24.75 12Z" fill="white" stroke="white" stroke-width="2" stroke-linecap="round" stroke-linejoin="bevel"/>
</svg>