<svg width="210" height="33" viewBox="0 0 210 33" fill="none" xmlns="http://www.w3.org/2000/svg">
<path d="M203.47 24.1982C202.517 24.1982 201.659 24.0295 200.896 23.6922C200.148 23.3402 199.554 22.8708 199.114 22.2842C198.674 21.6828 198.439 21.0155 198.41 20.2822H201.006C201.05 20.7955 201.292 21.2282 201.732 21.5802C202.187 21.9175 202.751 22.0862 203.426 22.0862C204.13 22.0862 204.673 21.9542 205.054 21.6902C205.45 21.4115 205.648 21.0595 205.648 20.6342C205.648 20.1795 205.428 19.8422 204.988 19.6222C204.563 19.4022 203.881 19.1602 202.942 18.8962C202.033 18.6468 201.292 18.4048 200.72 18.1702C200.148 17.9355 199.649 17.5762 199.224 17.0922C198.813 16.6082 198.608 15.9702 198.608 15.1782C198.608 14.5328 198.799 13.9462 199.18 13.4182C199.561 12.8755 200.104 12.4502 200.808 12.1422C201.527 11.8342 202.348 11.6802 203.272 11.6802C204.651 11.6802 205.758 12.0322 206.594 12.7362C207.445 13.4255 207.899 14.3715 207.958 15.5742H205.45C205.406 15.0315 205.186 14.5988 204.79 14.2762C204.394 13.9535 203.859 13.7922 203.184 13.7922C202.524 13.7922 202.018 13.9168 201.666 14.1662C201.314 14.4155 201.138 14.7455 201.138 15.1562C201.138 15.4788 201.255 15.7502 201.49 15.9702C201.725 16.1902 202.011 16.3662 202.348 16.4982C202.685 16.6155 203.184 16.7695 203.844 16.9602C204.724 17.1948 205.443 17.4368 206 17.6862C206.572 17.9208 207.063 18.2728 207.474 18.7422C207.885 19.2115 208.097 19.8348 208.112 20.6122C208.112 21.3015 207.921 21.9175 207.54 22.4602C207.159 23.0028 206.616 23.4282 205.912 23.7362C205.223 24.0442 204.409 24.1982 203.47 24.1982Z" fill="white"/>
<path d="M196.602 17.6422C196.602 18.0968 196.572 18.5075 196.514 18.8742H187.252C187.325 19.8422 187.684 20.6195 188.33 21.2062C188.975 21.7928 189.767 22.0862 190.706 22.0862C192.055 22.0862 193.008 21.5215 193.566 20.3922H196.272C195.905 21.5068 195.238 22.4235 194.27 23.1422C193.316 23.8462 192.128 24.1982 190.706 24.1982C189.547 24.1982 188.506 23.9415 187.582 23.4282C186.672 22.9002 185.954 22.1668 185.426 21.2282C184.912 20.2748 184.656 19.1748 184.656 17.9282C184.656 16.6815 184.905 15.5888 185.404 14.6502C185.917 13.6968 186.628 12.9635 187.538 12.4502C188.462 11.9368 189.518 11.6802 190.706 11.6802C191.85 11.6802 192.869 11.9295 193.764 12.4282C194.658 12.9268 195.355 13.6308 195.854 14.5402C196.352 15.4348 196.602 16.4688 196.602 17.6422ZM193.984 16.8502C193.969 15.9262 193.639 15.1855 192.994 14.6282C192.348 14.0708 191.549 13.7922 190.596 13.7922C189.73 13.7922 188.99 14.0708 188.374 14.6282C187.758 15.1708 187.391 15.9115 187.274 16.8502H193.984Z" fill="white"/>
<path d="M179.556 13.6382C179.923 13.0222 180.407 12.5455 181.008 12.2082C181.624 11.8562 182.35 11.6802 183.186 11.6802V14.2762H182.548C181.566 14.2762 180.818 14.5255 180.304 15.0242C179.806 15.5228 179.556 16.3882 179.556 17.6202V24.0002H177.048V11.8782H179.556V13.6382Z" fill="white"/>
<path d="M173.739 11.8779V23.9999H171.231V22.5699C170.835 23.0686 170.315 23.4646 169.669 23.7579C169.039 24.0366 168.364 24.1759 167.645 24.1759C166.692 24.1759 165.834 23.9779 165.071 23.5819C164.323 23.1859 163.729 22.5993 163.289 21.8219C162.864 21.0446 162.651 20.1059 162.651 19.0059V11.8779H165.137V18.6319C165.137 19.7173 165.409 20.5533 165.951 21.1399C166.494 21.7119 167.235 21.9979 168.173 21.9979C169.112 21.9979 169.853 21.7119 170.395 21.1399C170.953 20.5533 171.231 19.7173 171.231 18.6319V11.8779H173.739Z" fill="white"/>
<path d="M157.502 13.9238V20.6338C157.502 21.0884 157.604 21.4184 157.81 21.6238C158.03 21.8144 158.396 21.9098 158.91 21.9098H160.45V23.9998H158.47C157.34 23.9998 156.475 23.7358 155.874 23.2078C155.272 22.6798 154.972 21.8218 154.972 20.6338V13.9238H153.542V11.8778H154.972V8.86377H157.502V11.8778H160.45V13.9238H157.502Z" fill="white"/>
<path d="M146.405 11.6802C147.358 11.6802 148.209 11.8782 148.957 12.2742C149.719 12.6702 150.313 13.2568 150.739 14.0342C151.164 14.8115 151.377 15.7502 151.377 16.8502V24.0002H148.891V17.2242C148.891 16.1388 148.619 15.3102 148.077 14.7382C147.534 14.1515 146.793 13.8582 145.855 13.8582C144.916 13.8582 144.168 14.1515 143.611 14.7382C143.068 15.3102 142.797 16.1388 142.797 17.2242V24.0002H140.289V11.8782H142.797V13.2642C143.207 12.7655 143.728 12.3768 144.359 12.0982C145.004 11.8195 145.686 11.6802 146.405 11.6802Z" fill="white"/>
<path d="M137.821 17.6422C137.821 18.0968 137.791 18.5075 137.733 18.8742H128.471C128.544 19.8422 128.903 20.6195 129.549 21.2062C130.194 21.7928 130.986 22.0862 131.925 22.0862C133.274 22.0862 134.227 21.5215 134.785 20.3922H137.491C137.124 21.5068 136.457 22.4235 135.489 23.1422C134.535 23.8462 133.347 24.1982 131.925 24.1982C130.766 24.1982 129.725 23.9415 128.801 23.4282C127.891 22.9002 127.173 22.1668 126.645 21.2282C126.131 20.2748 125.875 19.1748 125.875 17.9282C125.875 16.6815 126.124 15.5888 126.623 14.6502C127.136 13.6968 127.847 12.9635 128.757 12.4502C129.681 11.9368 130.737 11.6802 131.925 11.6802C133.069 11.6802 134.088 11.9295 134.983 12.4282C135.877 12.9268 136.574 13.6308 137.073 14.5402C137.571 15.4348 137.821 16.4688 137.821 17.6422ZM135.203 16.8502C135.188 15.9262 134.858 15.1855 134.213 14.6282C133.567 14.0708 132.768 13.7922 131.815 13.7922C130.949 13.7922 130.209 14.0708 129.593 14.6282C128.977 15.1708 128.61 15.9115 128.493 16.8502H135.203Z" fill="white"/>
<path d="M124.613 8.70996L118.871 24H115.967L110.203 8.70996H112.887L117.419 21.426L121.973 8.70996H124.613Z" fill="white"/>
<path d="M89.9741 17.8842C89.9741 16.6669 90.2234 15.5889 90.7221 14.6502C91.2354 13.7115 91.9248 12.9855 92.7901 12.4722C93.6701 11.9442 94.6455 11.6802 95.7161 11.6802C96.5081 11.6802 97.2855 11.8562 98.0481 12.2082C98.8255 12.5455 99.4415 13.0002 99.8961 13.5722V7.72021H102.426V24.0002H99.8961V22.1742C99.4855 22.7609 98.9135 23.2449 98.1801 23.6262C97.4615 24.0075 96.6328 24.1982 95.6941 24.1982C94.6381 24.1982 93.6701 23.9342 92.7901 23.4062C91.9248 22.8635 91.2354 22.1155 90.7221 21.1622C90.2234 20.1942 89.9741 19.1015 89.9741 17.8842ZM99.8961 17.9282C99.8961 17.0922 99.7201 16.3662 99.3681 15.7502C99.0308 15.1342 98.5834 14.6649 98.0261 14.3422C97.4688 14.0195 96.8674 13.8582 96.2221 13.8582C95.5768 13.8582 94.9755 14.0195 94.4181 14.3422C93.8608 14.6502 93.4061 15.1122 93.0541 15.7282C92.7168 16.3295 92.5481 17.0482 92.5481 17.8842C92.5481 18.7202 92.7168 19.4535 93.0541 20.0842C93.4061 20.7149 93.8608 21.1989 94.4181 21.5362C94.9901 21.8589 95.5914 22.0202 96.2221 22.0202C96.8674 22.0202 97.4688 21.8589 98.0261 21.5362C98.5834 21.2135 99.0308 20.7442 99.3681 20.1282C99.7201 19.4975 99.8961 18.7642 99.8961 17.9282Z" fill="white"/>
<path d="M75.064 17.8842C75.064 16.6668 75.3133 15.5888 75.812 14.6502C76.3253 13.7115 77.0146 12.9855 77.88 12.4722C78.76 11.9442 79.728 11.6802 80.784 11.6802C81.7373 11.6802 82.566 11.8708 83.27 12.2522C83.9886 12.6188 84.5606 13.0808 84.986 13.6382V11.8782H87.516V24.0002H84.986V22.1962C84.5606 22.7682 83.9813 23.2448 83.248 23.6262C82.5146 24.0075 81.6786 24.1982 80.74 24.1982C79.6986 24.1982 78.7453 23.9342 77.88 23.4062C77.0146 22.8635 76.3253 22.1155 75.812 21.1622C75.3133 20.1942 75.064 19.1015 75.064 17.8842ZM84.986 17.9282C84.986 17.0922 84.81 16.3662 84.458 15.7502C84.1206 15.1342 83.6733 14.6648 83.116 14.3422C82.5586 14.0195 81.9573 13.8582 81.312 13.8582C80.6666 13.8582 80.0653 14.0195 79.508 14.3422C78.9506 14.6502 78.496 15.1122 78.144 15.7282C77.8066 16.3295 77.638 17.0482 77.638 17.8842C77.638 18.7202 77.8066 19.4535 78.144 20.0842C78.496 20.7148 78.9506 21.1988 79.508 21.5362C80.08 21.8588 80.6813 22.0202 81.312 22.0202C81.9573 22.0202 82.5586 21.8588 83.116 21.5362C83.6733 21.2135 84.1206 20.7442 84.458 20.1282C84.81 19.4975 84.986 18.7642 84.986 17.9282Z" fill="white"/>
<path d="M73.4318 17.6422C73.4318 18.0968 73.4025 18.5075 73.3438 18.8742H64.0818C64.1552 19.8422 64.5145 20.6195 65.1598 21.2062C65.8052 21.7928 66.5972 22.0862 67.5358 22.0862C68.8852 22.0862 69.8385 21.5215 70.3958 20.3922H73.1018C72.7352 21.5068 72.0678 22.4235 71.0998 23.1422C70.1465 23.8462 68.9585 24.1982 67.5358 24.1982C66.3772 24.1982 65.3358 23.9415 64.4118 23.4282C63.5025 22.9002 62.7838 22.1668 62.2558 21.2282C61.7425 20.2748 61.4858 19.1748 61.4858 17.9282C61.4858 16.6815 61.7352 15.5888 62.2338 14.6502C62.7472 13.6968 63.4585 12.9635 64.3678 12.4502C65.2918 11.9368 66.3478 11.6802 67.5358 11.6802C68.6798 11.6802 69.6992 11.9295 70.5938 12.4282C71.4885 12.9268 72.1852 13.6308 72.6838 14.5402C73.1825 15.4348 73.4318 16.4688 73.4318 17.6422ZM70.8138 16.8502C70.7992 15.9262 70.4692 15.1855 69.8238 14.6282C69.1785 14.0708 68.3792 13.7922 67.4258 13.7922C66.5605 13.7922 65.8198 14.0708 65.2038 14.6282C64.5878 15.1708 64.2212 15.9115 64.1038 16.8502H70.8138Z" fill="white"/>
<path d="M54.3047 11.6802C55.2287 11.6802 56.05 11.8782 56.7687 12.2742C57.502 12.6702 58.074 13.2569 58.4847 14.0342C58.91 14.8115 59.1227 15.7502 59.1227 16.8502V24.0002H56.6367V17.2242C56.6367 16.1389 56.3653 15.3102 55.8227 14.7382C55.28 14.1515 54.5393 13.8582 53.6007 13.8582C52.662 13.8582 51.914 14.1515 51.3567 14.7382C50.814 15.3102 50.5427 16.1389 50.5427 17.2242V24.0002H48.0347V7.72021H50.5427V13.2862C50.968 12.7729 51.5033 12.3769 52.1487 12.0982C52.8087 11.8195 53.5273 11.6802 54.3047 11.6802Z" fill="white"/>
<path d="M41.913 20.876H35.511L34.411 24H31.793L37.271 8.68799H40.175L45.653 24H43.013L41.913 20.876ZM41.209 18.83L38.723 11.724L36.215 18.83H41.209Z" fill="white"/>
<path d="M23.9236 24.1982C22.7796 24.1982 21.7456 23.9415 20.8216 23.4282C19.8976 22.9002 19.1716 22.1668 18.6436 21.2282C18.1156 20.2748 17.8516 19.1748 17.8516 17.9282C17.8516 16.6962 18.1229 15.6035 18.6656 14.6502C19.2082 13.6968 19.9489 12.9635 20.8876 12.4502C21.8262 11.9368 22.8749 11.6802 24.0336 11.6802C25.1922 11.6802 26.2409 11.9368 27.1796 12.4502C28.1182 12.9635 28.8589 13.6968 29.4016 14.6502C29.9442 15.6035 30.2156 16.6962 30.2156 17.9282C30.2156 19.1602 29.9369 20.2528 29.3796 21.2062C28.8222 22.1595 28.0596 22.9002 27.0916 23.4282C26.1382 23.9415 25.0822 24.1982 23.9236 24.1982ZM23.9236 22.0202C24.5689 22.0202 25.1702 21.8662 25.7276 21.5582C26.2996 21.2502 26.7616 20.7882 27.1136 20.1722C27.4656 19.5562 27.6416 18.8082 27.6416 17.9282C27.6416 17.0482 27.4729 16.3075 27.1356 15.7062C26.7982 15.0902 26.3509 14.6282 25.7936 14.3202C25.2362 14.0122 24.6349 13.8582 23.9896 13.8582C23.3442 13.8582 22.7429 14.0122 22.1856 14.3202C21.6429 14.6282 21.2102 15.0902 20.8876 15.7062C20.5649 16.3075 20.4036 17.0482 20.4036 17.9282C20.4036 19.2335 20.7336 20.2455 21.3936 20.9642C22.0682 21.6682 22.9116 22.0202 23.9236 22.0202Z" fill="white"/>
<path d="M12.716 13.1102C12.32 12.3475 11.77 11.7755 11.066 11.3942C10.362 10.9982 9.54797 10.8002 8.62397 10.8002C7.61197 10.8002 6.70997 11.0275 5.91797 11.4822C5.12597 11.9369 4.50263 12.5822 4.04797 13.4182C3.60796 14.2542 3.38797 15.2222 3.38797 16.3222C3.38797 17.4222 3.60796 18.3975 4.04797 19.2482C4.50263 20.0842 5.12597 20.7295 5.91797 21.1842C6.70997 21.6389 7.61197 21.8662 8.62397 21.8662C9.98797 21.8662 11.0953 21.4849 11.946 20.7222C12.7966 19.9595 13.3173 18.9255 13.508 17.6202H7.76596V15.6182H16.192V17.5762C16.0306 18.7642 15.6053 19.8569 14.916 20.8542C14.2413 21.8515 13.354 22.6509 12.254 23.2522C11.1686 23.8389 9.95863 24.1322 8.62397 24.1322C7.18663 24.1322 5.87396 23.8022 4.68597 23.1422C3.49796 22.4675 2.55196 21.5362 1.84797 20.3482C1.15863 19.1602 0.813965 17.8182 0.813965 16.3222C0.813965 14.8262 1.15863 13.4842 1.84797 12.2962C2.55196 11.1082 3.49796 10.1842 4.68597 9.52421C5.88863 8.84954 7.2013 8.51221 8.62397 8.51221C10.252 8.51221 11.6966 8.91554 12.958 9.72221C14.234 10.5142 15.158 11.6435 15.73 13.1102H12.716Z" fill="white"/>
</svg>
