<svg width="155" height="25" viewBox="0 0 155 25" fill="none" xmlns="http://www.w3.org/2000/svg">
<path d="M143.918 14.7959C143.918 12.501 145.945 10.9263 148.948 10.9263C151.804 10.9263 153.806 12.5254 153.892 14.8081H151.414C151.292 13.6484 150.352 12.9282 148.875 12.9282C147.446 12.9282 146.494 13.624 146.494 14.6372C146.494 15.4307 147.129 15.9678 148.459 16.2974L150.62 16.7979C153.208 17.4204 154.185 18.397 154.185 20.2891C154.185 22.6328 152 24.2441 148.85 24.2441C145.811 24.2441 143.796 22.6694 143.589 20.3135H146.201C146.409 21.5464 147.361 22.23 148.972 22.23C150.559 22.23 151.536 21.5708 151.536 20.5332C151.536 19.7153 151.047 19.2637 149.705 18.9219L147.41 18.3604C145.09 17.7988 143.918 16.5903 143.918 14.7959Z" fill="white"/>
<path d="M136.313 13.0503C134.47 13.0503 133.176 14.4541 133.042 16.395H139.463C139.402 14.4297 138.157 13.0503 136.313 13.0503ZM139.451 20.228H141.953C141.587 22.5718 139.365 24.2441 136.423 24.2441C132.651 24.2441 130.369 21.6929 130.369 17.6401C130.369 13.6118 132.688 10.9263 136.313 10.9263C139.878 10.9263 142.1 13.4409 142.1 17.335V18.2383H133.03V18.397C133.03 20.6309 134.373 22.1079 136.484 22.1079C137.986 22.1079 139.097 21.3511 139.451 20.228Z" fill="white"/>
<path d="M123.301 24V11.1582H125.815V13.3433H125.876C126.304 11.8418 127.451 10.9507 128.965 10.9507C129.343 10.9507 129.673 11.0117 129.868 11.0483V13.502C129.661 13.4165 129.197 13.3555 128.684 13.3555C126.987 13.3555 125.938 14.4907 125.938 16.3096V24H123.301Z" fill="white"/>
<path d="M120.688 11.1582V24H118.162V21.8271H118.101C117.393 23.3652 116.086 24.2319 114.121 24.2319C111.326 24.2319 109.617 22.4131 109.617 19.4712V11.1582H112.253V18.9585C112.253 20.9116 113.181 21.9614 115 21.9614C116.904 21.9614 118.052 20.6431 118.052 18.6411V11.1582H120.688Z" fill="white"/>
<path d="M102.415 8.11865H105.063V11.1582H107.505V13.2456H105.063V20.3257C105.063 21.4365 105.552 21.937 106.626 21.937C106.895 21.937 107.322 21.9126 107.493 21.876V23.9634C107.2 24.0366 106.614 24.0854 106.028 24.0854C103.428 24.0854 102.415 23.0967 102.415 20.6187V13.2456H100.547V11.1582H102.415V8.11865Z" fill="white"/>
<path d="M88.0225 24V11.1582H90.5371V13.3066H90.5981C91.2939 11.8418 92.6611 10.9385 94.6387 10.9385C97.4707 10.9385 99.0942 12.7451 99.0942 15.687V24H96.4453V16.1997C96.4453 14.271 95.542 13.209 93.7109 13.209C91.8555 13.209 90.6592 14.5273 90.6592 16.5171V24H88.0225Z" fill="white"/>
<path d="M80.1855 13.0503C78.3423 13.0503 77.0483 14.4541 76.9141 16.395H83.335C83.2739 14.4297 82.0288 13.0503 80.1855 13.0503ZM83.3228 20.228H85.8252C85.459 22.5718 83.2373 24.2441 80.2954 24.2441C76.5234 24.2441 74.2407 21.6929 74.2407 17.6401C74.2407 13.6118 76.5601 10.9263 80.1855 10.9263C83.75 10.9263 85.9717 13.4409 85.9717 17.335V18.2383H76.9019V18.397C76.9019 20.6309 78.2446 22.1079 80.3564 22.1079C81.8579 22.1079 82.9688 21.3511 83.3228 20.228Z" fill="white"/>
<path d="M68.6011 24H65.6104L59.3237 6.38525H62.29L67.0874 20.9238H67.1606L71.9702 6.38525H74.8877L68.6011 24Z" fill="white"/>
<path d="M46.7627 22.1323C48.606 22.1323 50.0464 20.8628 50.0464 19.1904V18.1772L46.8848 18.3726C45.3101 18.4824 44.4189 19.1782 44.4189 20.2769C44.4189 21.3999 45.3467 22.1323 46.7627 22.1323ZM46.0303 24.2197C43.5156 24.2197 41.7578 22.6572 41.7578 20.3501C41.7578 18.104 43.479 16.7246 46.5308 16.5537L50.0464 16.3462V15.3574C50.0464 13.9292 49.082 13.0747 47.4707 13.0747C45.9448 13.0747 44.9927 13.8071 44.7607 14.9546H42.2705C42.417 12.6353 44.3945 10.9263 47.5684 10.9263C50.6812 10.9263 52.6709 12.5742 52.6709 15.1499V24H50.144V21.8882H50.083C49.3384 23.3164 47.7148 24.2197 46.0303 24.2197Z" fill="white"/>
<path d="M29.9536 14.7959C29.9536 12.501 31.98 10.9263 34.9829 10.9263C37.8394 10.9263 39.8413 12.5254 39.9268 14.8081H37.4487C37.3267 13.6484 36.3867 12.9282 34.9097 12.9282C33.4814 12.9282 32.5293 13.624 32.5293 14.6372C32.5293 15.4307 33.1641 15.9678 34.4946 16.2974L36.6553 16.7979C39.2432 17.4204 40.2197 18.397 40.2197 20.2891C40.2197 22.6328 38.0347 24.2441 34.8853 24.2441C31.8457 24.2441 29.8315 22.6694 29.624 20.3135H32.2363C32.4438 21.5464 33.396 22.23 35.0073 22.23C36.5942 22.23 37.5708 21.5708 37.5708 20.5332C37.5708 19.7153 37.0825 19.2637 35.7397 18.9219L33.4448 18.3604C31.1255 17.7988 29.9536 16.5903 29.9536 14.7959Z" fill="white"/>
<path d="M27.5732 11.1582V24H25.0464V21.8271H24.9854C24.2773 23.3652 22.9712 24.2319 21.0059 24.2319C18.2104 24.2319 16.5015 22.4131 16.5015 19.4712V11.1582H19.1382V18.9585C19.1382 20.9116 20.0659 21.9614 21.8848 21.9614C23.7891 21.9614 24.9365 20.6431 24.9365 18.6411V11.1582H27.5732Z" fill="white"/>
<path d="M0.913086 19.0928H3.61084C3.80615 20.8384 5.50293 21.9858 7.82227 21.9858C10.0439 21.9858 11.6431 20.8384 11.6431 19.2637C11.6431 17.8965 10.6787 17.0786 8.396 16.5171L6.11328 15.9678C2.87842 15.1865 1.37695 13.6729 1.37695 11.2192C1.37695 8.17969 4.02588 6.09229 7.78564 6.09229C11.5088 6.09229 14.0601 8.17969 14.1455 11.2192H11.4844C11.3257 9.46143 9.87305 8.39941 7.74902 8.39941C5.625 8.39941 4.17236 9.47363 4.17236 11.0361C4.17236 12.2812 5.1001 13.0137 7.37061 13.5752L9.31152 14.0513C12.9248 14.9058 14.4263 16.3584 14.4263 18.9341C14.4263 22.23 11.8018 24.293 7.62695 24.293C3.7207 24.293 1.08398 22.2788 0.913086 19.0928Z" fill="white"/>
</svg>
