<svg width="128" height="24" viewBox="0 0 128 24" fill="none" xmlns="http://www.w3.org/2000/svg">
<path d="M120.254 20.9523C119.198 20.9523 118.19 20.8083 117.23 20.5203C116.286 20.2323 115.542 19.8803 114.998 19.4643L115.958 17.6403C116.502 18.0083 117.174 18.3203 117.974 18.5763C118.774 18.8323 119.59 18.9603 120.422 18.9603C121.494 18.9603 122.262 18.8083 122.726 18.5043C123.206 18.2003 123.446 17.7763 123.446 17.2323C123.446 16.8323 123.302 16.5203 123.014 16.2963C122.726 16.0723 122.342 15.9043 121.862 15.7923C121.398 15.6803 120.878 15.5843 120.302 15.5043C119.726 15.4083 119.15 15.2963 118.574 15.1683C117.998 15.0243 117.47 14.8323 116.99 14.5923C116.51 14.3363 116.126 13.9923 115.838 13.5603C115.55 13.1123 115.406 12.5203 115.406 11.7843C115.406 11.0163 115.622 10.3443 116.054 9.76826C116.486 9.19226 117.094 8.75226 117.878 8.44826C118.678 8.12826 119.622 7.96826 120.71 7.96826C121.542 7.96826 122.382 8.07226 123.23 8.28026C124.094 8.47226 124.798 8.75226 125.342 9.12026L124.358 10.9443C123.782 10.5603 123.182 10.2963 122.558 10.1523C121.934 10.0083 121.31 9.93626 120.686 9.93626C119.678 9.93626 118.926 10.1043 118.43 10.4403C117.934 10.7603 117.686 11.1763 117.686 11.6883C117.686 12.1203 117.83 12.4563 118.118 12.6963C118.422 12.9203 118.806 13.0963 119.27 13.2243C119.75 13.3523 120.278 13.4643 120.854 13.5603C121.43 13.6403 122.006 13.7523 122.582 13.8963C123.158 14.0243 123.678 14.2083 124.142 14.4483C124.622 14.6883 125.006 15.0243 125.294 15.4563C125.598 15.8883 125.75 16.4643 125.75 17.1843C125.75 17.9523 125.526 18.6163 125.078 19.1763C124.63 19.7363 123.998 20.1763 123.182 20.4963C122.366 20.8003 121.39 20.9523 120.254 20.9523Z" fill="white"/>
<path d="M110.159 20.8083V18.1203L110.039 17.6163V13.0323C110.039 12.0563 109.751 11.3043 109.175 10.7763C108.615 10.2323 107.767 9.96026 106.631 9.96026C105.879 9.96026 105.143 10.0883 104.423 10.3443C103.703 10.5843 103.095 10.9123 102.599 11.3283L101.639 9.60026C102.295 9.07226 103.079 8.67226 103.991 8.40026C104.919 8.11226 105.887 7.96826 106.895 7.96826C108.639 7.96826 109.983 8.39226 110.927 9.24026C111.871 10.0883 112.343 11.3843 112.343 13.1283V20.8083H110.159ZM105.983 20.9523C105.039 20.9523 104.207 20.7923 103.487 20.4723C102.783 20.1523 102.239 19.7123 101.855 19.1523C101.471 18.5763 101.279 17.9283 101.279 17.2083C101.279 16.5203 101.439 15.8963 101.759 15.3363C102.095 14.7763 102.631 14.3283 103.367 13.9923C104.119 13.6563 105.127 13.4883 106.391 13.4883H110.423V15.1443H106.487C105.335 15.1443 104.559 15.3363 104.159 15.7203C103.759 16.1043 103.559 16.5683 103.559 17.1123C103.559 17.7363 103.807 18.2403 104.303 18.6243C104.799 18.9923 105.487 19.1763 106.367 19.1763C107.231 19.1763 107.983 18.9843 108.623 18.6003C109.279 18.2163 109.751 17.6563 110.039 16.9203L110.495 18.5043C110.191 19.2563 109.655 19.8563 108.887 20.3043C108.119 20.7363 107.151 20.9523 105.983 20.9523Z" fill="white"/>
<path d="M95.5596 20.808V3H97.8636V20.808H95.5596Z" fill="white"/>
<path d="M89.9901 20.9522C88.7101 20.9522 87.7181 20.6082 87.0141 19.9202C86.3101 19.2322 85.9581 18.2482 85.9581 16.9682V5.3042H88.2621V16.8722C88.2621 17.5602 88.4301 18.0882 88.7661 18.4562C89.1181 18.8242 89.6141 19.0082 90.2541 19.0082C90.9741 19.0082 91.5741 18.8082 92.0541 18.4082L92.7741 20.0642C92.4221 20.3682 91.9981 20.5922 91.5021 20.7362C91.0221 20.8802 90.5181 20.9522 89.9901 20.9522ZM83.7981 9.9842V8.0882H91.9101V9.9842H83.7981Z" fill="white"/>
<path d="M65.9531 20.8083L73.5611 4.0083H75.9371L83.5691 20.8083H81.0491L74.2571 5.3523H75.2171L68.4251 20.8083H65.9531ZM69.1931 16.6083L69.8411 14.6883H79.2971L79.9931 16.6083H69.1931Z" fill="white"/>
<path d="M55.0127 20.808V3H57.3167V20.808H55.0127Z" fill="white"/>
<path d="M45.9814 20.9523C44.6214 20.9523 43.4214 20.6723 42.3814 20.1123C41.3574 19.5523 40.5574 18.7843 39.9814 17.8083C39.4214 16.8323 39.1414 15.7123 39.1414 14.4483C39.1414 13.1843 39.4134 12.0643 39.9574 11.0883C40.5174 10.1123 41.2774 9.35226 42.2374 8.80826C43.2134 8.24826 44.3094 7.96826 45.5254 7.96826C46.7574 7.96826 47.8454 8.24026 48.7894 8.78426C49.7334 9.32826 50.4694 10.0963 50.9974 11.0883C51.5414 12.0643 51.8134 13.2083 51.8134 14.5203C51.8134 14.6163 51.8054 14.7283 51.7894 14.8563C51.7894 14.9843 51.7814 15.1043 51.7654 15.2163H40.9414V13.5603H50.5654L49.6294 14.1363C49.6454 13.3203 49.4774 12.5923 49.1254 11.9523C48.7734 11.3123 48.2854 10.8163 47.6614 10.4643C47.0534 10.0963 46.3414 9.91226 45.5254 9.91226C44.7254 9.91226 44.0134 10.0963 43.3894 10.4643C42.7654 10.8163 42.2774 11.3203 41.9254 11.9763C41.5734 12.6163 41.3974 13.3523 41.3974 14.1843V14.5683C41.3974 15.4163 41.5894 16.1763 41.9734 16.8483C42.3734 17.5043 42.9254 18.0163 43.6294 18.3843C44.3334 18.7523 45.1414 18.9363 46.0534 18.9363C46.8054 18.9363 47.4854 18.8083 48.0934 18.5523C48.7174 18.2963 49.2614 17.9123 49.7254 17.4003L50.9974 18.8883C50.4214 19.5603 49.7014 20.0723 48.8374 20.4243C47.9894 20.7763 47.0374 20.9523 45.9814 20.9523Z" fill="white"/>
<path d="M31.286 20.9523C29.926 20.9523 28.726 20.6723 27.686 20.1123C26.662 19.5523 25.862 18.7843 25.286 17.8083C24.726 16.8323 24.446 15.7123 24.446 14.4483C24.446 13.1843 24.718 12.0643 25.262 11.0883C25.822 10.1123 26.582 9.35226 27.542 8.80826C28.518 8.24826 29.614 7.96826 30.83 7.96826C32.062 7.96826 33.15 8.24026 34.094 8.78426C35.038 9.32826 35.774 10.0963 36.302 11.0883C36.846 12.0643 37.118 13.2083 37.118 14.5203C37.118 14.6163 37.11 14.7283 37.094 14.8563C37.094 14.9843 37.086 15.1043 37.07 15.2163H26.246V13.5603H35.87L34.934 14.1363C34.95 13.3203 34.782 12.5923 34.43 11.9523C34.078 11.3123 33.59 10.8163 32.966 10.4643C32.358 10.0963 31.646 9.91226 30.83 9.91226C30.03 9.91226 29.318 10.0963 28.694 10.4643C28.07 10.8163 27.582 11.3203 27.23 11.9763C26.878 12.6163 26.702 13.3523 26.702 14.1843V14.5683C26.702 15.4163 26.894 16.1763 27.278 16.8483C27.678 17.5043 28.23 18.0163 28.934 18.3843C29.638 18.7523 30.446 18.9363 31.358 18.9363C32.11 18.9363 32.79 18.8083 33.398 18.5523C34.022 18.2963 34.566 17.9123 35.03 17.4003L36.302 18.8883C35.726 19.5603 35.006 20.0723 34.142 20.4243C33.294 20.7763 32.342 20.9523 31.286 20.9523Z" fill="white"/>
<path d="M20.4745 20.9522C19.1945 20.9522 18.2025 20.6082 17.4985 19.9202C16.7945 19.2322 16.4425 18.2482 16.4425 16.9682V5.3042H18.7465V16.8722C18.7465 17.5602 18.9145 18.0882 19.2505 18.4562C19.6025 18.8242 20.0985 19.0082 20.7385 19.0082C21.4585 19.0082 22.0585 18.8082 22.5385 18.4082L23.2585 20.0642C22.9065 20.3682 22.4825 20.5922 21.9865 20.7362C21.5065 20.8802 21.0025 20.9522 20.4745 20.9522ZM14.2825 9.9842V8.0882H22.3945V9.9842H14.2825Z" fill="white"/>
<path d="M6.432 20.9999C5.152 20.9999 3.928 20.8079 2.76 20.4239C1.592 20.0239 0.672 19.5119 0 18.8879L0.888 17.0159C1.528 17.5759 2.344 18.0399 3.336 18.4079C4.328 18.7759 5.36 18.9599 6.432 18.9599C7.408 18.9599 8.2 18.8479 8.808 18.6239C9.416 18.3999 9.864 18.0959 10.152 17.7119C10.44 17.3119 10.584 16.8639 10.584 16.3679C10.584 15.7919 10.392 15.3279 10.008 14.9759C9.64 14.6239 9.152 14.3439 8.544 14.1359C7.952 13.9119 7.296 13.7199 6.576 13.5599C5.856 13.3999 5.128 13.2159 4.392 13.0079C3.672 12.7839 3.008 12.5039 2.4 12.1679C1.808 11.8319 1.328 11.3839 0.96 10.8239C0.592 10.2479 0.408 9.51192 0.408 8.61592C0.408 7.75192 0.632 6.95992 1.08 6.23992C1.544 5.50392 2.248 4.91992 3.192 4.48792C4.152 4.03992 5.368 3.81592 6.84 3.81592C7.816 3.81592 8.784 3.94392 9.744 4.19992C10.704 4.45592 11.536 4.82392 12.24 5.30392L11.448 7.22392C10.728 6.74392 9.968 6.39992 9.168 6.19192C8.368 5.96792 7.592 5.85592 6.84 5.85592C5.896 5.85592 5.12 5.97592 4.512 6.21592C3.904 6.45592 3.456 6.77592 3.168 7.17592C2.896 7.57592 2.76 8.02392 2.76 8.51992C2.76 9.11192 2.944 9.58392 3.312 9.93592C3.696 10.2879 4.184 10.5679 4.776 10.7759C5.384 10.9839 6.048 11.1759 6.768 11.3519C7.488 11.5119 8.208 11.6959 8.928 11.9039C9.664 12.1119 10.328 12.3839 10.92 12.7199C11.528 13.0559 12.016 13.5039 12.384 14.0639C12.752 14.6239 12.936 15.3439 12.936 16.2239C12.936 17.0719 12.704 17.8639 12.24 18.5999C11.776 19.3199 11.056 19.9039 10.08 20.3519C9.12 20.7839 7.904 20.9999 6.432 20.9999Z" fill="white"/>
</svg>
