<svg width="172" height="20" viewBox="0 0 172 20" fill="none" xmlns="http://www.w3.org/2000/svg">
<path d="M170.192 8.03906C170.094 8.2181 169.948 8.30762 169.752 8.30762C169.63 8.30762 169.496 8.26286 169.35 8.17334C169.211 8.08382 169.04 7.99023 168.837 7.89258C168.642 7.78678 168.406 7.68913 168.129 7.59961C167.86 7.51009 167.539 7.46533 167.165 7.46533C166.847 7.46533 166.562 7.51009 166.31 7.59961C166.058 7.68913 165.842 7.8112 165.663 7.96582C165.484 8.12044 165.346 8.30355 165.248 8.51514C165.15 8.71859 165.102 8.93831 165.102 9.17432C165.102 9.48356 165.183 9.73991 165.346 9.94336C165.508 10.1468 165.724 10.3218 165.993 10.4683C166.261 10.6147 166.566 10.749 166.908 10.8711C167.258 10.985 167.612 11.103 167.97 11.2251C168.328 11.3472 168.678 11.4896 169.02 11.6523C169.37 11.8151 169.679 12.0145 169.948 12.2505C170.216 12.4865 170.432 12.7754 170.595 13.1172C170.757 13.4508 170.839 13.8577 170.839 14.3379C170.839 14.8913 170.745 15.404 170.558 15.876C170.371 16.3398 170.094 16.7427 169.728 17.0845C169.37 17.4263 168.922 17.6948 168.385 17.8901C167.856 18.0854 167.246 18.1831 166.554 18.1831C165.765 18.1831 165.045 18.0488 164.394 17.7803C163.751 17.5117 163.205 17.1618 162.758 16.7305L163.258 15.9248C163.323 15.819 163.401 15.7376 163.49 15.6807C163.58 15.6237 163.694 15.5952 163.832 15.5952C163.979 15.5952 164.125 15.6522 164.271 15.7661C164.418 15.8719 164.593 15.994 164.796 16.1323C165.008 16.2625 165.26 16.3846 165.553 16.4985C165.846 16.6043 166.212 16.6572 166.652 16.6572C167.026 16.6572 167.348 16.6043 167.616 16.4985C167.893 16.3927 168.121 16.2544 168.3 16.0835C168.479 15.9045 168.613 15.6969 168.703 15.4609C168.792 15.2249 168.837 14.9767 168.837 14.7163C168.837 14.3908 168.751 14.1222 168.581 13.9106C168.418 13.6909 168.202 13.5078 167.934 13.3613C167.665 13.2067 167.356 13.0724 167.006 12.9585C166.664 12.8446 166.31 12.7266 165.944 12.6045C165.586 12.4743 165.232 12.3319 164.882 12.1772C164.54 12.0145 164.235 11.811 163.966 11.5669C163.698 11.3146 163.478 11.0094 163.307 10.6514C163.144 10.2933 163.063 9.85791 163.063 9.34521C163.063 8.88135 163.153 8.44189 163.332 8.02686C163.511 7.60368 163.771 7.2334 164.113 6.91602C164.455 6.59863 164.878 6.34635 165.382 6.15918C165.887 5.97201 166.465 5.87842 167.116 5.87842C167.856 5.87842 168.528 6.00049 169.13 6.24463C169.732 6.48877 170.245 6.83057 170.668 7.27002L170.192 8.03906Z" fill="white"/>
<path d="M155.983 5.87842C156.699 5.87842 157.362 5.99642 157.973 6.23242C158.583 6.46842 159.112 6.81429 159.56 7.27002C160.007 7.72575 160.357 8.2832 160.609 8.94238C160.862 9.60156 160.988 10.3584 160.988 11.2129C160.988 11.5465 160.951 11.7703 160.878 11.8843C160.805 11.9901 160.67 12.043 160.475 12.043H152.492C152.508 12.7917 152.61 13.4468 152.797 14.0083C152.984 14.5617 153.24 15.0215 153.566 15.3877C153.9 15.7539 154.294 16.0306 154.75 16.2178C155.206 16.3968 155.714 16.4863 156.276 16.4863C156.797 16.4863 157.248 16.4294 157.631 16.3154C158.013 16.1934 158.339 16.0591 158.607 15.9126C158.884 15.7661 159.116 15.6359 159.303 15.522C159.49 15.3999 159.653 15.3389 159.792 15.3389C159.881 15.3389 159.958 15.3592 160.023 15.3999C160.089 15.4325 160.146 15.4813 160.194 15.5464L160.805 16.3276C160.536 16.645 160.219 16.9217 159.853 17.1577C159.494 17.3856 159.108 17.5768 158.693 17.7314C158.278 17.8779 157.847 17.9878 157.399 18.061C156.959 18.1343 156.524 18.1709 156.093 18.1709C155.263 18.1709 154.498 18.0326 153.798 17.7559C153.098 17.4792 152.492 17.0723 151.979 16.5352C151.474 15.9899 151.08 15.3226 150.795 14.5332C150.51 13.7357 150.368 12.8201 150.368 11.7866C150.368 10.9565 150.494 10.1834 150.746 9.46729C151.007 8.743 151.377 8.11637 151.857 7.5874C152.345 7.05029 152.935 6.63118 153.627 6.33008C154.327 6.02897 155.112 5.87842 155.983 5.87842ZM156.02 7.44092C155.019 7.44092 154.225 7.73389 153.639 8.31982C153.061 8.90576 152.699 9.70736 152.553 10.7246H159.059C159.059 10.2445 158.99 9.80501 158.852 9.40625C158.713 8.99935 158.514 8.65348 158.253 8.36865C157.993 8.07568 157.672 7.84782 157.289 7.68506C156.915 7.5223 156.492 7.44092 156.02 7.44092Z" fill="white"/>
<path d="M142.677 18V6.06152H143.91C144.138 6.06152 144.297 6.10628 144.386 6.1958C144.484 6.28532 144.541 6.43587 144.557 6.64746L144.704 8.40527C145.07 7.61589 145.521 6.99333 146.059 6.5376C146.596 6.08187 147.243 5.854 148 5.854C148.252 5.854 148.488 5.88249 148.708 5.93945C148.927 5.98828 149.127 6.07373 149.306 6.1958L149.135 7.78271C149.11 7.98617 148.996 8.08789 148.793 8.08789C148.679 8.08789 148.516 8.06755 148.305 8.02686C148.101 7.97803 147.873 7.95361 147.621 7.95361C147.255 7.95361 146.929 8.01058 146.645 8.12451C146.368 8.23031 146.116 8.39307 145.888 8.61279C145.668 8.82438 145.473 9.0848 145.302 9.39404C145.131 9.70329 144.972 10.0573 144.826 10.4561V18H142.677Z" fill="white"/>
<path d="M131.618 6.06152V13.6665C131.618 14.5617 131.817 15.2575 132.216 15.7539C132.623 16.2422 133.237 16.4863 134.059 16.4863C134.669 16.4863 135.235 16.3439 135.756 16.0591C136.285 15.7661 136.773 15.3674 137.221 14.8628V6.06152H139.369V18H138.075C137.929 18 137.807 17.9674 137.709 17.9023C137.611 17.8291 137.554 17.7152 137.538 17.5605L137.343 16.291C136.83 16.8607 136.256 17.3205 135.622 17.6704C134.995 18.0122 134.267 18.1831 133.437 18.1831C132.785 18.1831 132.212 18.0773 131.715 17.8657C131.227 17.646 130.816 17.3408 130.482 16.9502C130.149 16.5514 129.896 16.0754 129.726 15.522C129.555 14.9604 129.469 14.342 129.469 13.6665V6.06152H131.618Z" fill="white"/>
<path d="M124.66 18.1831C123.74 18.1831 123.032 17.9186 122.536 17.3896C122.039 16.8607 121.791 16.1038 121.791 15.1191V7.84375H120.424C120.302 7.84375 120.196 7.80306 120.106 7.72168C120.025 7.6403 119.984 7.5223 119.984 7.36768V6.51318L121.864 6.26904L122.365 2.59473C122.381 2.47266 122.43 2.375 122.511 2.30176C122.601 2.22852 122.711 2.19189 122.841 2.19189H123.939V6.28125H127.223V7.84375H123.939V14.9727C123.939 15.4609 124.049 15.8271 124.269 16.0713C124.497 16.3154 124.79 16.4375 125.148 16.4375C125.36 16.4375 125.539 16.409 125.685 16.3521C125.84 16.2951 125.97 16.23 126.076 16.1567C126.181 16.0835 126.271 16.0184 126.344 15.9614C126.426 15.9045 126.499 15.876 126.564 15.876C126.637 15.876 126.694 15.8923 126.735 15.9248C126.784 15.9574 126.828 16.0103 126.869 16.0835L127.504 17.1089C127.138 17.4507 126.706 17.7152 126.21 17.9023C125.714 18.0895 125.197 18.1831 124.66 18.1831Z" fill="white"/>
<path d="M108.388 18V6.06152H109.669C109.824 6.06152 109.95 6.09814 110.048 6.17139C110.146 6.23649 110.202 6.34635 110.219 6.50098L110.402 7.77051C110.915 7.20085 111.488 6.74512 112.123 6.40332C112.758 6.05339 113.49 5.87842 114.32 5.87842C114.971 5.87842 115.541 5.98828 116.029 6.20801C116.526 6.4196 116.941 6.72477 117.274 7.12354C117.608 7.51416 117.86 7.99023 118.031 8.55176C118.202 9.10514 118.288 9.71956 118.288 10.395V18H116.139V10.395C116.139 9.50798 115.936 8.81624 115.529 8.31982C115.13 7.8234 114.52 7.5752 113.698 7.5752C113.087 7.5752 112.518 7.72168 111.989 8.01465C111.46 8.29948 110.976 8.69824 110.536 9.21094V18H108.388Z" fill="white"/>
<path d="M100.758 5.87842C101.474 5.87842 102.138 5.99642 102.748 6.23242C103.358 6.46842 103.887 6.81429 104.335 7.27002C104.783 7.72575 105.132 8.2832 105.385 8.94238C105.637 9.60156 105.763 10.3584 105.763 11.2129C105.763 11.5465 105.727 11.7703 105.653 11.8843C105.58 11.9901 105.446 12.043 105.25 12.043H97.2671C97.2834 12.7917 97.3851 13.4468 97.5723 14.0083C97.7594 14.5617 98.0158 15.0215 98.3413 15.3877C98.675 15.7539 99.0697 16.0306 99.5254 16.2178C99.9811 16.3968 100.49 16.4863 101.051 16.4863C101.572 16.4863 102.024 16.4294 102.406 16.3154C102.789 16.1934 103.114 16.0591 103.383 15.9126C103.66 15.7661 103.891 15.6359 104.079 15.522C104.266 15.3999 104.429 15.3389 104.567 15.3389C104.656 15.3389 104.734 15.3592 104.799 15.3999C104.864 15.4325 104.921 15.4813 104.97 15.5464L105.58 16.3276C105.312 16.645 104.994 16.9217 104.628 17.1577C104.27 17.3856 103.883 17.5768 103.468 17.7314C103.053 17.8779 102.622 17.9878 102.174 18.061C101.735 18.1343 101.299 18.1709 100.868 18.1709C100.038 18.1709 99.2731 18.0326 98.5732 17.7559C97.8734 17.4792 97.2671 17.0723 96.7544 16.5352C96.2498 15.9899 95.8551 15.3226 95.5703 14.5332C95.2855 13.7357 95.1431 12.8201 95.1431 11.7866C95.1431 10.9565 95.2692 10.1834 95.5215 9.46729C95.7819 8.743 96.1522 8.11637 96.6323 7.5874C97.1206 7.05029 97.7106 6.63118 98.4023 6.33008C99.1022 6.02897 99.8875 5.87842 100.758 5.87842ZM100.795 7.44092C99.7939 7.44092 99.0005 7.73389 98.4146 8.31982C97.8368 8.90576 97.4746 9.70736 97.3281 10.7246H103.834C103.834 10.2445 103.765 9.80501 103.627 9.40625C103.489 8.99935 103.289 8.65348 103.029 8.36865C102.768 8.07568 102.447 7.84782 102.064 7.68506C101.69 7.5223 101.267 7.44092 100.795 7.44092Z" fill="white"/>
<path d="M81.3613 1.95996H83.1558C83.3511 1.95996 83.5098 2.00879 83.6318 2.10645C83.7539 2.2041 83.8434 2.32617 83.9004 2.47266L87.8677 13.7153C87.9653 13.9676 88.0589 14.2443 88.1484 14.5454C88.2461 14.8384 88.3315 15.1476 88.4048 15.4731C88.4699 15.1476 88.5431 14.8384 88.6245 14.5454C88.714 14.2443 88.8076 13.9676 88.9053 13.7153L92.8604 2.48486C92.9092 2.34652 92.9987 2.22445 93.1289 2.11865C93.2591 2.01286 93.4178 1.95996 93.605 1.95996H95.3994L89.3813 18H87.3794L81.3613 1.95996Z" fill="white"/>
<path d="M72.9019 18C72.6089 18 72.3851 17.9593 72.2305 17.8779C72.0758 17.7884 71.9538 17.6134 71.8643 17.353L71.5957 16.5474C71.2865 16.8159 70.9894 17.0519 70.7046 17.2554C70.4198 17.4588 70.1227 17.6297 69.8135 17.7681C69.5124 17.9064 69.1868 18.0081 68.8369 18.0732C68.4951 18.1465 68.1126 18.1831 67.6895 18.1831C67.1686 18.1831 66.6925 18.1139 66.2612 17.9756C65.8299 17.8291 65.4556 17.6175 65.1382 17.3408C64.8289 17.0641 64.5889 16.7223 64.418 16.3154C64.2471 15.9004 64.1616 15.4243 64.1616 14.8872C64.1616 14.4396 64.2756 13.992 64.5034 13.5444C64.7313 13.0968 65.1178 12.694 65.6631 12.3359C66.2165 11.9697 66.9489 11.6686 67.8604 11.4326C68.7799 11.1885 69.9233 11.0501 71.2905 11.0176V10.3706C71.2905 9.58936 71.1278 9.01562 70.8022 8.64941C70.4767 8.2832 70.0088 8.1001 69.3984 8.1001C68.9427 8.1001 68.5643 8.15299 68.2632 8.25879C67.9702 8.36458 67.7098 8.48258 67.4819 8.61279C67.2541 8.73486 67.0425 8.8488 66.8472 8.95459C66.6519 9.06038 66.4321 9.11328 66.188 9.11328C65.9764 9.11328 65.7933 9.06038 65.6387 8.95459C65.4922 8.84066 65.3742 8.70638 65.2847 8.55176L64.7231 7.5752C65.423 6.92415 66.1961 6.43994 67.0425 6.12256C67.8888 5.80518 68.8044 5.64648 69.7891 5.64648C70.4971 5.64648 71.1318 5.76449 71.6934 6.00049C72.2549 6.22835 72.731 6.55387 73.1216 6.97705C73.5122 7.39209 73.8092 7.88851 74.0127 8.46631C74.2161 9.04411 74.3179 9.67887 74.3179 10.3706V18H72.9019ZM68.6538 16.0713C69.2072 16.0713 69.6833 15.9736 70.082 15.7783C70.4889 15.5749 70.8918 15.2656 71.2905 14.8506V12.8975C70.4849 12.93 69.8135 12.9992 69.2764 13.105C68.7474 13.2026 68.3242 13.3328 68.0068 13.4956C67.6895 13.6502 67.4616 13.8333 67.3232 14.0449C67.193 14.2565 67.1279 14.4844 67.1279 14.7285C67.1279 15.2168 67.2622 15.5627 67.5308 15.7661C67.8075 15.9696 68.1818 16.0713 68.6538 16.0713Z" fill="white"/>
<path d="M51.3564 18V0.458496H54.457V7.30664C54.929 6.81836 55.4539 6.42773 56.0317 6.13477C56.6095 5.83366 57.2606 5.68311 57.9849 5.68311C58.6766 5.68311 59.2992 5.82145 59.8525 6.09814C60.4059 6.37484 60.8779 6.7736 61.2686 7.29443C61.6592 7.80713 61.9603 8.42969 62.1719 9.16211C62.3835 9.89453 62.4893 10.7165 62.4893 11.6279C62.4893 12.6126 62.3672 13.5078 62.123 14.3135C61.8789 15.1191 61.533 15.8109 61.0854 16.3887C60.6379 16.9583 60.1007 17.4019 59.4741 17.7192C58.8556 18.0285 58.1639 18.1831 57.3989 18.1831C57.0246 18.1831 56.6868 18.1465 56.3857 18.0732C56.0928 18 55.8201 17.8983 55.5679 17.7681C55.3156 17.6297 55.0837 17.467 54.8721 17.2798C54.6686 17.0845 54.4692 16.8688 54.2739 16.6328L54.1396 17.4141C54.099 17.6338 54.0176 17.7884 53.8955 17.8779C53.7734 17.9593 53.6147 18 53.4194 18H51.3564ZM56.9106 8.1001C56.3898 8.1001 55.9382 8.2181 55.5557 8.4541C55.1732 8.68197 54.807 9.01562 54.457 9.45508V14.8018C54.7663 15.1842 55.0999 15.4528 55.458 15.6074C55.8161 15.762 56.1986 15.8394 56.6055 15.8394C57.0124 15.8394 57.3826 15.7661 57.7163 15.6196C58.05 15.465 58.3307 15.2249 58.5586 14.8994C58.7946 14.5658 58.9736 14.1426 59.0957 13.6299C59.2259 13.109 59.291 12.4824 59.291 11.75C59.291 11.099 59.2381 10.5456 59.1323 10.0898C59.0265 9.62598 58.8719 9.24756 58.6685 8.95459C58.4731 8.66162 58.2249 8.44596 57.9238 8.30762C57.6309 8.16927 57.2931 8.1001 56.9106 8.1001Z" fill="white"/>
<path d="M31.0684 18V5.87842H32.9727C33.168 5.87842 33.3307 5.92318 33.4609 6.0127C33.5993 6.10221 33.6888 6.24056 33.7295 6.42773L33.937 7.28223C34.1567 7.05436 34.3805 6.84277 34.6084 6.64746C34.8444 6.45215 35.0967 6.28532 35.3652 6.14697C35.6338 6.00049 35.9186 5.88656 36.2197 5.80518C36.529 5.7238 36.8667 5.68311 37.2329 5.68311C38.006 5.68311 38.6408 5.89062 39.1372 6.30566C39.6418 6.71257 40.0161 7.25374 40.2603 7.9292C40.4556 7.53044 40.6956 7.18864 40.9805 6.90381C41.2734 6.61898 41.5949 6.38704 41.9448 6.20801C42.2948 6.02897 42.661 5.89876 43.0435 5.81738C43.4341 5.72786 43.8247 5.68311 44.2153 5.68311C44.8989 5.68311 45.5052 5.7889 46.0342 6.00049C46.5713 6.20394 47.0189 6.50505 47.377 6.90381C47.7432 7.29443 48.0199 7.77458 48.207 8.34424C48.3942 8.9139 48.4878 9.56087 48.4878 10.2852V18H45.3872V10.2852C45.3872 8.82845 44.7362 8.1001 43.4341 8.1001C43.1411 8.1001 42.8685 8.14893 42.6162 8.24658C42.3639 8.3361 42.1401 8.47445 41.9448 8.66162C41.7576 8.84066 41.6071 9.06852 41.4932 9.34521C41.3874 9.61377 41.3345 9.92708 41.3345 10.2852V18H38.2339V10.2852C38.2339 9.50391 38.0711 8.94645 37.7456 8.61279C37.4201 8.271 36.9481 8.1001 36.3296 8.1001C35.9146 8.1001 35.528 8.19368 35.1699 8.38086C34.8118 8.56803 34.4782 8.83252 34.1689 9.17432V18H31.0684Z" fill="white"/>
<path d="M20.4849 5.87842V13.5811C20.4849 14.2809 20.6436 14.8221 20.9609 15.2046C21.2783 15.5871 21.7544 15.7783 22.3892 15.7783C22.853 15.7783 23.2925 15.6766 23.7075 15.4731C24.1226 15.2616 24.5132 14.9767 24.8794 14.6187V5.87842H27.98V18H26.0757C25.8804 18 25.7135 17.9552 25.5752 17.8657C25.445 17.7681 25.3595 17.6257 25.3188 17.4385L25.0991 16.5596C24.619 17.0397 24.0859 17.4303 23.5 17.7314C22.9222 18.0326 22.2345 18.1831 21.437 18.1831C20.7778 18.1831 20.196 18.0692 19.6914 17.8413C19.1868 17.6134 18.7637 17.2961 18.4219 16.8892C18.0801 16.4823 17.8197 15.998 17.6406 15.4365C17.4697 14.875 17.3843 14.2565 17.3843 13.5811V5.87842H20.4849Z" fill="white"/>
<path d="M14.6987 18H11.4761V10.981H4.90869V18H1.68604V1.78906H4.90869V8.71045H11.4761V1.78906H14.6987V18Z" fill="white"/>
</svg>
