<svg width="157" height="24" viewBox="0 0 157 24" fill="none" xmlns="http://www.w3.org/2000/svg">
<path d="M154.899 1.24023V19.0002H152.319V1.24023H154.899Z" fill="white"/>
<path d="M146.741 13.6482C145.821 13.6802 145.045 13.7562 144.413 13.8762C143.781 13.9882 143.269 14.1362 142.877 14.3202C142.485 14.4962 142.201 14.7082 142.025 14.9562C141.857 15.2042 141.773 15.4762 141.773 15.7722C141.773 16.0602 141.817 16.3082 141.905 16.5162C142.001 16.7162 142.129 16.8842 142.289 17.0202C142.457 17.1482 142.649 17.2442 142.865 17.3082C143.089 17.3642 143.333 17.3922 143.597 17.3922C144.269 17.3922 144.845 17.2682 145.325 17.0202C145.813 16.7642 146.285 16.3962 146.741 15.9162V13.6482ZM139.901 8.46423C141.285 7.17623 142.933 6.53223 144.845 6.53223C145.549 6.53223 146.173 6.64823 146.717 6.88023C147.269 7.10423 147.729 7.42423 148.097 7.84023C148.473 8.25623 148.757 8.75223 148.949 9.32823C149.149 9.89623 149.249 10.5282 149.249 11.2242V19.0002H148.097C147.849 19.0002 147.661 18.9642 147.533 18.8922C147.405 18.8122 147.297 18.6562 147.209 18.4242L146.957 17.4282C146.645 17.7082 146.337 17.9602 146.033 18.1842C145.729 18.4002 145.413 18.5842 145.085 18.7362C144.765 18.8882 144.417 19.0002 144.041 19.0722C143.673 19.1522 143.265 19.1922 142.817 19.1922C142.321 19.1922 141.857 19.1242 141.425 18.9882C141.001 18.8522 140.633 18.6482 140.321 18.3762C140.009 18.0962 139.761 17.7522 139.577 17.3442C139.401 16.9362 139.313 16.4562 139.313 15.9042C139.313 15.4322 139.437 14.9722 139.685 14.5242C139.941 14.0762 140.357 13.6762 140.933 13.3242C141.517 12.9642 142.281 12.6682 143.225 12.4362C144.177 12.2042 145.349 12.0722 146.741 12.0402V11.2242C146.741 10.3442 146.553 9.68823 146.177 9.25623C145.801 8.82423 145.249 8.60823 144.521 8.60823C144.025 8.60823 143.609 8.67223 143.273 8.80023C142.937 8.92023 142.645 9.05223 142.397 9.19623C142.149 9.34023 141.929 9.47623 141.737 9.60423C141.545 9.72423 141.341 9.78423 141.125 9.78423C140.949 9.78423 140.797 9.74023 140.669 9.65223C140.549 9.55623 140.449 9.44023 140.369 9.30423L139.901 8.46423Z" fill="white"/>
<path d="M135.359 19.1922C134.343 19.1922 133.559 18.9082 133.007 18.3402C132.463 17.7642 132.191 16.9562 132.191 15.9162V8.7882H130.847C130.703 8.7882 130.579 8.7442 130.475 8.6562C130.371 8.5602 130.319 8.4202 130.319 8.2362V7.1922L132.299 6.9042L132.863 3.3642C132.903 3.2282 132.971 3.1202 133.067 3.0402C133.163 2.9522 133.291 2.9082 133.451 2.9082H134.771V6.9282H138.167V8.7882H134.771V15.7362C134.771 16.1762 134.879 16.5122 135.095 16.7442C135.311 16.9762 135.599 17.0922 135.959 17.0922C136.159 17.0922 136.331 17.0682 136.475 17.0202C136.619 16.9642 136.743 16.9082 136.847 16.8522C136.951 16.7882 137.039 16.7322 137.111 16.6842C137.191 16.6282 137.267 16.6002 137.339 16.6002C137.483 16.6002 137.599 16.6802 137.687 16.8402L138.455 18.1002C138.055 18.4522 137.583 18.7242 137.039 18.9162C136.495 19.1002 135.935 19.1922 135.359 19.1922Z" fill="white"/>
<path d="M128.194 6.75994V18.9999H125.614V6.75994H128.194ZM128.626 3.06394C128.626 3.29594 128.578 3.51594 128.482 3.72394C128.394 3.93194 128.27 4.11594 128.11 4.27594C127.95 4.42794 127.762 4.55194 127.546 4.64794C127.338 4.73594 127.114 4.77994 126.874 4.77994C126.642 4.77994 126.422 4.73594 126.214 4.64794C126.014 4.55194 125.838 4.42794 125.686 4.27594C125.534 4.11594 125.41 3.93194 125.314 3.72394C125.226 3.51594 125.182 3.29594 125.182 3.06394C125.182 2.82394 125.226 2.59994 125.314 2.39194C125.41 2.18394 125.534 2.00394 125.686 1.85194C125.838 1.69194 126.014 1.56794 126.214 1.47994C126.422 1.38394 126.642 1.33594 126.874 1.33594C127.114 1.33594 127.338 1.38394 127.546 1.47994C127.762 1.56794 127.95 1.69194 128.11 1.85194C128.27 2.00394 128.394 2.18394 128.482 2.39194C128.578 2.59994 128.626 2.82394 128.626 3.06394Z" fill="white"/>
<path d="M114.539 15.9282C114.899 16.3922 115.291 16.7202 115.715 16.9122C116.147 17.0962 116.623 17.1882 117.143 17.1882C118.151 17.1882 118.935 16.8202 119.495 16.0842C120.063 15.3482 120.347 14.2522 120.347 12.7962C120.347 12.0442 120.283 11.4042 120.155 10.8762C120.027 10.3402 119.843 9.90423 119.603 9.56823C119.363 9.23223 119.071 8.98823 118.727 8.83623C118.383 8.68423 117.995 8.60823 117.563 8.60823C116.907 8.60823 116.339 8.75223 115.859 9.04023C115.387 9.32023 114.947 9.72423 114.539 10.2522V15.9282ZM114.407 8.53623C114.919 7.93623 115.499 7.45223 116.147 7.08423C116.803 6.71623 117.563 6.53223 118.427 6.53223C119.115 6.53223 119.739 6.67223 120.299 6.95223C120.859 7.22423 121.339 7.62423 121.739 8.15223C122.139 8.68023 122.447 9.33623 122.663 10.1202C122.887 10.8962 122.999 11.7882 122.999 12.7962C122.999 13.7002 122.875 14.5442 122.627 15.3282C122.387 16.1042 122.039 16.7802 121.583 17.3562C121.127 17.9242 120.575 18.3722 119.927 18.7002C119.279 19.0202 118.547 19.1802 117.731 19.1802C117.011 19.1802 116.399 19.0642 115.895 18.8322C115.399 18.6002 114.947 18.2802 114.539 17.8722V23.0682H111.959V6.76023H113.519C113.871 6.76023 114.095 6.92423 114.191 7.25223L114.407 8.53623Z" fill="white"/>
<path d="M106.428 13.6482C105.508 13.6802 104.732 13.7562 104.1 13.8762C103.468 13.9882 102.956 14.1362 102.564 14.3202C102.172 14.4962 101.888 14.7082 101.712 14.9562C101.544 15.2042 101.46 15.4762 101.46 15.7722C101.46 16.0602 101.504 16.3082 101.592 16.5162C101.688 16.7162 101.816 16.8842 101.976 17.0202C102.144 17.1482 102.336 17.2442 102.552 17.3082C102.776 17.3642 103.02 17.3922 103.284 17.3922C103.956 17.3922 104.532 17.2682 105.012 17.0202C105.5 16.7642 105.972 16.3962 106.428 15.9162V13.6482ZM99.5885 8.46423C100.972 7.17623 102.62 6.53223 104.532 6.53223C105.236 6.53223 105.86 6.64823 106.404 6.88023C106.956 7.10423 107.416 7.42423 107.784 7.84023C108.16 8.25623 108.444 8.75223 108.636 9.32823C108.836 9.89623 108.936 10.5282 108.936 11.2242V19.0002H107.784C107.536 19.0002 107.348 18.9642 107.22 18.8922C107.092 18.8122 106.984 18.6562 106.896 18.4242L106.644 17.4282C106.332 17.7082 106.024 17.9602 105.72 18.1842C105.416 18.4002 105.1 18.5842 104.772 18.7362C104.452 18.8882 104.104 19.0002 103.728 19.0722C103.36 19.1522 102.952 19.1922 102.504 19.1922C102.008 19.1922 101.544 19.1242 101.112 18.9882C100.688 18.8522 100.32 18.6482 100.008 18.3762C99.6965 18.0962 99.4485 17.7522 99.2645 17.3442C99.0885 16.9362 99.0005 16.4562 99.0005 15.9042C99.0005 15.4322 99.1245 14.9722 99.3725 14.5242C99.6285 14.0762 100.044 13.6762 100.62 13.3242C101.204 12.9642 101.968 12.6682 102.912 12.4362C103.864 12.2042 105.036 12.0722 106.428 12.0402V11.2242C106.428 10.3442 106.24 9.68823 105.864 9.25623C105.488 8.82423 104.936 8.60823 104.208 8.60823C103.712 8.60823 103.296 8.67223 102.96 8.80023C102.624 8.92023 102.332 9.05223 102.084 9.19623C101.836 9.34023 101.616 9.47623 101.424 9.60423C101.232 9.72423 101.028 9.78423 100.812 9.78423C100.636 9.78423 100.484 9.74023 100.356 9.65223C100.236 9.55623 100.136 9.44023 100.056 9.30423L99.5885 8.46423Z" fill="white"/>
<path d="M96.4309 15.1478C96.5829 15.1478 96.7149 15.2078 96.8269 15.3278L97.9429 16.5398C97.2389 17.3878 96.3749 18.0438 95.3509 18.5078C94.3269 18.9638 93.1029 19.1918 91.6789 19.1918C90.4149 19.1918 89.2709 18.9758 88.2469 18.5438C87.2309 18.1038 86.3629 17.4958 85.6429 16.7198C84.9229 15.9358 84.3669 15.0038 83.9749 13.9238C83.5909 12.8438 83.3989 11.6558 83.3989 10.3598C83.3989 9.06383 83.6029 7.87583 84.0109 6.79583C84.4269 5.70783 85.0069 4.77583 85.7509 3.99983C86.5029 3.21583 87.3989 2.60783 88.4389 2.17583C89.4869 1.74383 90.6389 1.52783 91.8949 1.52783C93.1429 1.52783 94.2429 1.73183 95.1949 2.13983C96.1549 2.53983 96.9869 3.07583 97.6909 3.74783L96.7669 5.05583C96.7029 5.14383 96.6269 5.21983 96.5389 5.28383C96.4509 5.34783 96.3309 5.37983 96.1789 5.37983C96.0189 5.37983 95.8349 5.30783 95.6269 5.16383C95.4269 5.01183 95.1669 4.84783 94.8469 4.67183C94.5349 4.48783 94.1389 4.32383 93.6589 4.17983C93.1869 4.02783 92.5949 3.95183 91.8829 3.95183C91.0589 3.95183 90.3029 4.09583 89.6149 4.38383C88.9269 4.67183 88.3349 5.09183 87.8389 5.64383C87.3429 6.19583 86.9549 6.86783 86.6749 7.65983C86.4029 8.45183 86.2669 9.35183 86.2669 10.3598C86.2669 11.3758 86.4109 12.2838 86.6989 13.0838C86.9869 13.8758 87.3829 14.5478 87.8869 15.0998C88.3909 15.6438 88.9829 16.0598 89.6629 16.3478C90.3429 16.6358 91.0749 16.7798 91.8589 16.7798C92.3389 16.7798 92.7669 16.7558 93.1429 16.7078C93.5269 16.6518 93.8789 16.5678 94.1989 16.4558C94.5189 16.3358 94.8189 16.1878 95.0989 16.0118C95.3869 15.8358 95.6709 15.6198 95.9509 15.3638C96.1109 15.2198 96.2709 15.1478 96.4309 15.1478Z" fill="white"/>
<path d="M72.8843 11.4281C72.8843 11.0441 72.8283 10.6841 72.7163 10.3481C72.6123 10.0041 72.4523 9.70409 72.2363 9.44809C72.0203 9.19209 71.7443 8.99209 71.4083 8.84809C71.0803 8.69609 70.6963 8.62009 70.2563 8.62009C69.4003 8.62009 68.7243 8.86409 68.2283 9.35209C67.7403 9.84009 67.4283 10.5321 67.2923 11.4281H72.8843ZM67.2323 13.2161C67.2803 13.8481 67.3923 14.3961 67.5683 14.8601C67.7443 15.3161 67.9763 15.6961 68.2643 16.0001C68.5523 16.2961 68.8923 16.5201 69.2843 16.6721C69.6843 16.8161 70.1243 16.8881 70.6043 16.8881C71.0843 16.8881 71.4963 16.8321 71.8403 16.7201C72.1923 16.6081 72.4963 16.4841 72.7523 16.3481C73.0163 16.2121 73.2443 16.0881 73.4363 15.9761C73.6363 15.8641 73.8283 15.8081 74.0123 15.8081C74.2603 15.8081 74.4443 15.9001 74.5643 16.0841L75.4163 17.1641C75.0883 17.5481 74.7203 17.8721 74.3123 18.1361C73.9043 18.3921 73.4763 18.6001 73.0283 18.7601C72.5883 18.9121 72.1363 19.0201 71.6723 19.0841C71.2163 19.1481 70.7723 19.1801 70.3403 19.1801C69.4843 19.1801 68.6883 19.0401 67.9523 18.7601C67.2163 18.4721 66.5763 18.0521 66.0323 17.5001C65.4883 16.9401 65.0603 16.2521 64.7483 15.4361C64.4363 14.6121 64.2803 13.6601 64.2803 12.5801C64.2803 11.7401 64.4163 10.9521 64.6883 10.2161C64.9603 9.47209 65.3483 8.82809 65.8523 8.28409C66.3643 7.73209 66.9843 7.29609 67.7123 6.97609C68.4483 6.65609 69.2763 6.49609 70.1963 6.49609C70.9723 6.49609 71.6883 6.62009 72.3443 6.86809C73.0003 7.11609 73.5643 7.48009 74.0363 7.96009C74.5083 8.43209 74.8763 9.01609 75.1403 9.71209C75.4123 10.4001 75.5483 11.1881 75.5483 12.0761C75.5483 12.5241 75.5003 12.8281 75.4043 12.9881C75.3083 13.1401 75.1243 13.2161 74.8523 13.2161H67.2323Z" fill="white"/>
<path d="M56.9834 12.5442C57.3514 12.5442 57.6714 12.4962 57.9434 12.4002C58.2154 12.2962 58.4394 12.1562 58.6154 11.9802C58.7994 11.8042 58.9354 11.5922 59.0234 11.3442C59.1194 11.0962 59.1674 10.8242 59.1674 10.5282C59.1674 9.92017 58.9834 9.44017 58.6154 9.08817C58.2554 8.72817 57.7114 8.54817 56.9834 8.54817C56.2554 8.54817 55.7074 8.72817 55.3394 9.08817C54.9794 9.44017 54.7994 9.92017 54.7994 10.5282C54.7994 10.8162 54.8434 11.0842 54.9314 11.3322C55.0274 11.5802 55.1634 11.7962 55.3394 11.9802C55.5234 12.1562 55.7514 12.2962 56.0234 12.4002C56.3034 12.4962 56.6234 12.5442 56.9834 12.5442ZM60.3314 19.5522C60.3314 19.3122 60.2594 19.1162 60.1154 18.9642C59.9714 18.8122 59.7754 18.6962 59.5274 18.6162C59.2794 18.5282 58.9874 18.4642 58.6514 18.4242C58.3234 18.3842 57.9714 18.3562 57.5954 18.3402C57.2274 18.3162 56.8434 18.2962 56.4434 18.2802C56.0514 18.2642 55.6674 18.2322 55.2914 18.1842C54.9634 18.3682 54.6954 18.5842 54.4874 18.8322C54.2874 19.0802 54.1874 19.3682 54.1874 19.6962C54.1874 19.9122 54.2394 20.1122 54.3434 20.2962C54.4554 20.4882 54.6274 20.6522 54.8594 20.7882C55.0994 20.9242 55.4074 21.0282 55.7834 21.1002C56.1594 21.1802 56.6194 21.2202 57.1634 21.2202C57.7154 21.2202 58.1914 21.1762 58.5914 21.0882C58.9914 21.0082 59.3194 20.8922 59.5754 20.7402C59.8394 20.5962 60.0314 20.4202 60.1514 20.2122C60.2714 20.0122 60.3314 19.7922 60.3314 19.5522ZM63.2834 7.10817V8.21217C63.2834 8.56417 63.0714 8.78017 62.6474 8.86017L61.5434 9.06417C61.7114 9.48817 61.7954 9.95217 61.7954 10.4562C61.7954 11.0642 61.6714 11.6162 61.4234 12.1122C61.1834 12.6002 60.8474 13.0162 60.4154 13.3602C59.9834 13.7042 59.4714 13.9722 58.8794 14.1642C58.2954 14.3482 57.6634 14.4402 56.9834 14.4402C56.7434 14.4402 56.5114 14.4282 56.2874 14.4042C56.0634 14.3802 55.8434 14.3482 55.6274 14.3082C55.2434 14.5402 55.0514 14.8002 55.0514 15.0882C55.0514 15.3362 55.1634 15.5202 55.3874 15.6402C55.6194 15.7522 55.9234 15.8322 56.2994 15.8802C56.6754 15.9282 57.1034 15.9602 57.5834 15.9762C58.0634 15.9842 58.5554 16.0082 59.0594 16.0482C59.5634 16.0882 60.0554 16.1602 60.5354 16.2642C61.0154 16.3602 61.4434 16.5162 61.8194 16.7322C62.1954 16.9482 62.4954 17.2442 62.7194 17.6202C62.9514 17.9882 63.0674 18.4642 63.0674 19.0482C63.0674 19.5922 62.9314 20.1202 62.6594 20.6322C62.3954 21.1442 62.0074 21.6002 61.4954 22.0002C60.9914 22.4002 60.3674 22.7202 59.6234 22.9602C58.8874 23.2082 58.0474 23.3322 57.1034 23.3322C56.1754 23.3322 55.3674 23.2402 54.6794 23.0562C53.9914 22.8802 53.4194 22.6402 52.9634 22.3362C52.5074 22.0402 52.1674 21.6962 51.9434 21.3042C51.7194 20.9122 51.6074 20.5042 51.6074 20.0802C51.6074 19.5042 51.7794 19.0242 52.1234 18.6402C52.4754 18.2482 52.9554 17.9362 53.5634 17.7042C53.2354 17.5362 52.9754 17.3122 52.7834 17.0322C52.5914 16.7522 52.4954 16.3842 52.4954 15.9282C52.4954 15.7442 52.5274 15.5562 52.5914 15.3642C52.6634 15.1642 52.7634 14.9682 52.8914 14.7762C53.0274 14.5842 53.1954 14.4042 53.3954 14.2362C53.5954 14.0602 53.8314 13.9042 54.1034 13.7682C53.4794 13.4322 52.9874 12.9842 52.6274 12.4242C52.2754 11.8642 52.0994 11.2082 52.0994 10.4562C52.0994 9.84817 52.2194 9.30017 52.4594 8.81217C52.7074 8.31617 53.0474 7.89617 53.4794 7.55217C53.9194 7.20017 54.4354 6.93217 55.0274 6.74817C55.6274 6.56417 56.2794 6.47217 56.9834 6.47217C57.5114 6.47217 58.0074 6.52817 58.4714 6.64017C58.9354 6.74417 59.3594 6.90017 59.7434 7.10817H63.2834Z" fill="white"/>
<path d="M46.7999 13.744C45.9439 13.784 45.2239 13.86 44.6399 13.972C44.0559 14.076 43.5879 14.212 43.2359 14.38C42.8839 14.548 42.6319 14.744 42.4799 14.968C42.3279 15.192 42.2519 15.436 42.2519 15.7C42.2519 16.22 42.4039 16.592 42.7079 16.816C43.0199 17.04 43.4239 17.152 43.9199 17.152C44.5279 17.152 45.0519 17.044 45.4919 16.828C45.9399 16.604 46.3759 16.268 46.7999 15.82V13.744ZM40.0079 8.40396C41.4239 7.10796 43.1279 6.45996 45.1199 6.45996C45.8399 6.45996 46.4839 6.57996 47.0519 6.81996C47.6199 7.05196 48.0999 7.37996 48.4919 7.80396C48.8839 8.21996 49.1799 8.71996 49.3799 9.30396C49.5879 9.88796 49.6919 10.528 49.6919 11.224V19H48.3479C48.0679 19 47.8519 18.96 47.6999 18.88C47.5479 18.792 47.4279 18.62 47.3399 18.364L47.0759 17.476C46.7639 17.756 46.4599 18.004 46.1639 18.22C45.8679 18.428 45.5599 18.604 45.2399 18.748C44.9199 18.892 44.5759 19 44.2079 19.072C43.8479 19.152 43.4479 19.192 43.0079 19.192C42.4879 19.192 42.0079 19.124 41.5679 18.988C41.1279 18.844 40.7479 18.632 40.4279 18.352C40.1079 18.072 39.8599 17.724 39.6839 17.308C39.5079 16.892 39.4199 16.408 39.4199 15.856C39.4199 15.544 39.4719 15.236 39.5759 14.932C39.6799 14.62 39.8479 14.324 40.0799 14.044C40.3199 13.764 40.6279 13.5 41.0039 13.252C41.3799 13.004 41.8399 12.788 42.3839 12.604C42.9359 12.42 43.5759 12.272 44.3039 12.16C45.0319 12.04 45.8639 11.968 46.7999 11.944V11.224C46.7999 10.4 46.6239 9.79196 46.2719 9.39996C45.9199 8.99996 45.4119 8.79996 44.7479 8.79996C44.2679 8.79996 43.8679 8.85596 43.5479 8.96796C43.2359 9.07996 42.9599 9.20796 42.7199 9.35196C42.4799 9.48796 42.2599 9.61196 42.0599 9.72396C41.8679 9.83596 41.6519 9.89196 41.4119 9.89196C41.2039 9.89196 41.0279 9.83996 40.8839 9.73596C40.7399 9.62396 40.6239 9.49596 40.5359 9.35196L40.0079 8.40396Z" fill="white"/>
<path d="M34.3031 8.82396C34.6871 8.08796 35.1431 7.51196 35.6711 7.09596C36.1991 6.67196 36.8231 6.45996 37.5431 6.45996C38.1111 6.45996 38.5671 6.58396 38.9111 6.83196L38.7191 9.05196C38.6791 9.19596 38.6191 9.29996 38.5391 9.36396C38.4671 9.41996 38.3671 9.44796 38.2391 9.44796C38.1191 9.44796 37.9391 9.42796 37.6991 9.38796C37.4671 9.34796 37.2391 9.32796 37.0151 9.32796C36.6871 9.32796 36.3951 9.37596 36.1391 9.47196C35.8831 9.56796 35.6511 9.70796 35.4431 9.89196C35.2431 10.068 35.0631 10.284 34.9031 10.54C34.7511 10.796 34.6071 11.088 34.4711 11.416V19H31.5071V6.68796H33.2471C33.5511 6.68796 33.7631 6.74396 33.8831 6.85596C34.0031 6.95996 34.0831 7.15196 34.1231 7.43196L34.3031 8.82396Z" fill="white"/>
<path d="M25.8234 13.744C24.9674 13.784 24.2474 13.86 23.6634 13.972C23.0794 14.076 22.6114 14.212 22.2594 14.38C21.9074 14.548 21.6554 14.744 21.5034 14.968C21.3514 15.192 21.2754 15.436 21.2754 15.7C21.2754 16.22 21.4274 16.592 21.7314 16.816C22.0434 17.04 22.4474 17.152 22.9434 17.152C23.5514 17.152 24.0754 17.044 24.5154 16.828C24.9634 16.604 25.3994 16.268 25.8234 15.82V13.744ZM19.0314 8.40396C20.4474 7.10796 22.1514 6.45996 24.1434 6.45996C24.8634 6.45996 25.5074 6.57996 26.0754 6.81996C26.6434 7.05196 27.1234 7.37996 27.5154 7.80396C27.9074 8.21996 28.2034 8.71996 28.4034 9.30396C28.6114 9.88796 28.7154 10.528 28.7154 11.224V19H27.3714C27.0914 19 26.8754 18.96 26.7234 18.88C26.5714 18.792 26.4514 18.62 26.3634 18.364L26.0994 17.476C25.7874 17.756 25.4834 18.004 25.1874 18.22C24.8914 18.428 24.5834 18.604 24.2634 18.748C23.9434 18.892 23.5994 19 23.2314 19.072C22.8714 19.152 22.4714 19.192 22.0314 19.192C21.5114 19.192 21.0314 19.124 20.5914 18.988C20.1514 18.844 19.7714 18.632 19.4514 18.352C19.1314 18.072 18.8834 17.724 18.7074 17.308C18.5314 16.892 18.4434 16.408 18.4434 15.856C18.4434 15.544 18.4954 15.236 18.5994 14.932C18.7034 14.62 18.8714 14.324 19.1034 14.044C19.3434 13.764 19.6514 13.5 20.0274 13.252C20.4034 13.004 20.8634 12.788 21.4074 12.604C21.9594 12.42 22.5994 12.272 23.3274 12.16C24.0554 12.04 24.8874 11.968 25.8234 11.944V11.224C25.8234 10.4 25.6474 9.79196 25.2954 9.39996C24.9434 8.99996 24.4354 8.79996 23.7714 8.79996C23.2914 8.79996 22.8914 8.85596 22.5714 8.96796C22.2594 9.07996 21.9834 9.20796 21.7434 9.35196C21.5034 9.48796 21.2834 9.61196 21.0834 9.72396C20.8914 9.83596 20.6754 9.89196 20.4354 9.89196C20.2274 9.89196 20.0514 9.83996 19.9074 9.73596C19.7634 9.62396 19.6474 9.49596 19.5594 9.35196L19.0314 8.40396Z" fill="white"/>
<path d="M16.7242 10.3001V17.3201C15.8442 17.9681 14.9042 18.4441 13.9042 18.7481C12.9122 19.0441 11.8482 19.1921 10.7122 19.1921C9.29618 19.1921 8.01218 18.9721 6.86018 18.5321C5.71618 18.0921 4.73618 17.4801 3.92018 16.6961C3.11218 15.9121 2.48818 14.9761 2.04818 13.8881C1.60818 12.8001 1.38818 11.6121 1.38818 10.3241C1.38818 9.02005 1.60018 7.82405 2.02418 6.73605C2.44818 5.64805 3.04818 4.71205 3.82418 3.92805C4.60818 3.14405 5.55618 2.53605 6.66818 2.10405C7.78018 1.67205 9.02818 1.45605 10.4122 1.45605C11.1162 1.45605 11.7722 1.51205 12.3802 1.62405C12.9962 1.73605 13.5642 1.89205 14.0842 2.09205C14.6122 2.28405 15.0922 2.52005 15.5242 2.80005C15.9562 3.08005 16.3522 3.38805 16.7122 3.72405L15.7882 5.18805C15.6442 5.42005 15.4562 5.56405 15.2242 5.62005C14.9922 5.66805 14.7402 5.60805 14.4682 5.44005C14.2042 5.28805 13.9402 5.13605 13.6762 4.98405C13.4122 4.83205 13.1162 4.70005 12.7882 4.58805C12.4682 4.47605 12.1042 4.38405 11.6962 4.31205C11.2962 4.24005 10.8322 4.20405 10.3042 4.20405C9.44818 4.20405 8.67218 4.34805 7.97618 4.63605C7.28818 4.92405 6.70018 5.33605 6.21218 5.87205C5.72418 6.40805 5.34818 7.05205 5.08418 7.80405C4.82018 8.55605 4.68818 9.39605 4.68818 10.3241C4.68818 11.3161 4.82818 12.2041 5.10818 12.9881C5.39618 13.7641 5.79618 14.4241 6.30818 14.9681C6.82818 15.5041 7.45218 15.9161 8.18018 16.2041C8.90818 16.4841 9.72018 16.6241 10.6162 16.6241C11.2562 16.6241 11.8282 16.5561 12.3322 16.4201C12.8362 16.2841 13.3282 16.1001 13.8082 15.8681V12.7241H11.6242C11.4162 12.7241 11.2522 12.6681 11.1322 12.5561C11.0202 12.4361 10.9642 12.2921 10.9642 12.1241V10.3001H16.7242Z" fill="white"/>
</svg>
