<svg width="205" height="24" viewBox="0 0 205 24" fill="none" xmlns="http://www.w3.org/2000/svg">
<path d="M198.688 19.293C195.289 19.293 193.512 17.957 193.355 15.2852H195.57C195.586 16.8008 196.617 17.5586 198.664 17.5586C199.578 17.5586 200.273 17.3711 200.75 16.9961C201.234 16.6133 201.477 16.1367 201.477 15.5664C201.477 15.0039 201.242 14.6094 200.773 14.3828C200.305 14.1484 199.336 13.8477 197.867 13.4805C196.406 13.1133 195.336 12.7031 194.656 12.25C193.984 11.7969 193.648 11 193.648 9.85938C193.648 8.82812 194.066 7.97656 194.902 7.30469C195.746 6.625 196.871 6.28516 198.277 6.28516C201.535 6.28516 203.199 7.44531 203.27 9.76562H201.066C200.988 8.59375 200.109 8.00781 198.43 8.00781C197.688 8.00781 197.07 8.14844 196.578 8.42969C196.094 8.71094 195.852 9.12109 195.852 9.66016C195.852 10.1445 196.039 10.4961 196.414 10.7148C196.789 10.9258 197.727 11.2148 199.227 11.582C200.734 11.9414 201.852 12.3633 202.578 12.8477C203.312 13.332 203.68 14.168 203.68 15.3555C203.68 16.4883 203.227 17.4297 202.32 18.1797C201.422 18.9219 200.211 19.293 198.688 19.293Z" fill="white"/>
<path d="M186.172 19.293C184.344 19.293 182.875 18.7227 181.766 17.582C180.656 16.4336 180.102 14.8359 180.102 12.7891C180.102 10.7578 180.637 9.16797 181.707 8.01953C182.785 6.86328 184.191 6.28516 185.926 6.28516C187.699 6.28516 189.113 6.85156 190.168 7.98438C191.23 9.11719 191.762 10.7188 191.762 12.7891V13.3164H182.398C182.492 14.7539 182.887 15.8203 183.582 16.5156C184.285 17.2109 185.148 17.5586 186.172 17.5586C186.945 17.5586 187.641 17.3633 188.258 16.9727C188.883 16.5742 189.211 16.0117 189.242 15.2852H191.527C191.355 16.5664 190.773 17.5547 189.781 18.25C188.797 18.9453 187.594 19.293 186.172 19.293ZM189.43 11.582C189.25 10.3867 188.848 9.49219 188.223 8.89844C187.598 8.30469 186.832 8.00781 185.926 8.00781C185.043 8.00781 184.285 8.30469 183.652 8.89844C183.02 9.48438 182.617 10.3789 182.445 11.582H189.43Z" fill="white"/>
<path d="M179.352 8.58203C179.039 8.48828 178.59 8.44141 178.004 8.44141C176.879 8.44141 175.914 9.03125 175.109 10.2109V19H172.895V6.56641H175.109V8.30078C176.039 6.95703 177.117 6.28516 178.344 6.28516C178.656 6.28516 178.992 6.31641 179.352 6.37891V8.58203Z" fill="white"/>
<path d="M167.41 17.418C166.309 18.668 165.07 19.293 163.695 19.293C160.891 19.293 159.488 17.7617 159.488 14.6992V6.56641H161.703V14.6055C161.703 15.6211 161.883 16.3516 162.242 16.7969C162.602 17.2422 163.195 17.4648 164.023 17.4648C165.258 17.4648 166.387 16.8008 167.41 15.4727V6.56641H169.613V19H167.41V17.418Z" fill="white"/>
<path d="M157.684 19.0234C157.199 19.1172 156.672 19.1641 156.102 19.1641C155.195 19.1641 154.531 19.0039 154.109 18.6836C153.688 18.3555 153.426 17.9375 153.324 17.4297C153.223 16.9219 153.172 16.2305 153.172 15.3555V8.30078H151.637V6.56641H153.172V3.47266H155.375V6.56641H157.391V8.30078H155.375V15.4727C155.375 16.3242 155.48 16.8672 155.691 17.1016C155.91 17.3281 156.207 17.4414 156.582 17.4414C156.965 17.4414 157.332 17.4102 157.684 17.3477V19.0234Z" fill="white"/>
<path d="M141.711 8.14844C142.812 6.90625 144.051 6.28516 145.426 6.28516C148.23 6.28516 149.633 7.8125 149.633 10.8672V19H147.418V10.9609C147.418 9.94531 147.234 9.21484 146.867 8.76953C146.508 8.32422 145.914 8.10156 145.086 8.10156C143.961 8.10156 142.836 8.76562 141.711 10.0938V19H139.496V6.56641H141.711V8.14844Z" fill="white"/>
<path d="M131.422 19.293C129.594 19.293 128.125 18.7227 127.016 17.582C125.906 16.4336 125.352 14.8359 125.352 12.7891C125.352 10.7578 125.887 9.16797 126.957 8.01953C128.035 6.86328 129.441 6.28516 131.176 6.28516C132.949 6.28516 134.363 6.85156 135.418 7.98438C136.48 9.11719 137.012 10.7188 137.012 12.7891V13.3164H127.648C127.742 14.7539 128.137 15.8203 128.832 16.5156C129.535 17.2109 130.398 17.5586 131.422 17.5586C132.195 17.5586 132.891 17.3633 133.508 16.9727C134.133 16.5742 134.461 16.0117 134.492 15.2852H136.777C136.605 16.5664 136.023 17.5547 135.031 18.25C134.047 18.9453 132.844 19.293 131.422 19.293ZM134.68 11.582C134.5 10.3867 134.098 9.49219 133.473 8.89844C132.848 8.30469 132.082 8.00781 131.176 8.00781C130.293 8.00781 129.535 8.30469 128.902 8.89844C128.27 9.48438 127.867 10.3789 127.695 11.582H134.68Z" fill="white"/>
<path d="M124.344 1.82031L117.664 19H115.32L108.641 1.82031H111.066L116.492 16.5508L121.918 1.82031H124.344Z" fill="white"/>
<path d="M101.456 15.7601V18.6641C100.688 19.0481 99.832 19.2401 98.888 19.2401C97.544 19.2401 96.488 18.8641 95.72 18.1121C94.968 17.3601 94.592 16.2721 94.592 14.8481V9.04009H92V6.18409H94.592V2.39209H97.904V6.18409H101.576V9.04009H97.904V14.0801C97.904 15.4721 98.528 16.1681 99.776 16.1681C100.4 16.1681 100.96 16.0321 101.456 15.7601Z" fill="white"/>
<path d="M91.4681 14.8958C91.4681 16.2558 90.9721 17.3198 89.9801 18.0878C88.9881 18.8558 87.5881 19.2398 85.7801 19.2398C83.9881 19.2398 82.5801 18.8398 81.5561 18.0398C80.5321 17.2238 79.9561 16.0878 79.8281 14.6318H83.0201C83.0361 15.2878 83.3001 15.8158 83.8121 16.2158C84.3241 16.5998 84.9961 16.7918 85.8281 16.7918C86.5161 16.7918 87.0681 16.6798 87.4841 16.4558C87.9001 16.2318 88.1081 15.9038 88.1081 15.4718C88.1081 15.0718 87.9721 14.7758 87.7001 14.5838C87.4281 14.3758 86.9801 14.2078 86.3561 14.0798L84.0521 13.6478C82.8841 13.4398 81.9721 13.0238 81.3161 12.3998C80.6761 11.7598 80.3561 10.9518 80.3561 9.97585C80.3561 8.77585 80.8281 7.80785 81.7721 7.07185C82.7321 6.31985 84.0041 5.94385 85.5881 5.94385C87.2041 5.94385 88.5241 6.34385 89.5481 7.14385C90.5721 7.94385 91.1401 9.03185 91.2521 10.4078H88.0601C87.9961 9.78385 87.7401 9.29585 87.2921 8.94385C86.8601 8.57585 86.2921 8.39185 85.5881 8.39185C84.9641 8.39185 84.4681 8.50385 84.1001 8.72785C83.7321 8.95185 83.5481 9.26385 83.5481 9.66385C83.5481 10.0318 83.6761 10.3118 83.9321 10.5038C84.2041 10.6958 84.6361 10.8478 85.2281 10.9598L87.7001 11.4158C90.2121 11.8958 91.4681 13.0558 91.4681 14.8958Z" fill="white"/>
<path d="M78.2037 3.20789C78.2037 3.78389 77.9957 4.25589 77.5797 4.62389C77.1637 4.99189 76.6277 5.17589 75.9717 5.17589C75.3317 5.17589 74.8037 4.99189 74.3877 4.62389C73.9717 4.23989 73.7637 3.76789 73.7637 3.20789C73.7637 2.61589 73.9717 2.13589 74.3877 1.76789C74.8037 1.38389 75.3317 1.19189 75.9717 1.19189C76.6277 1.19189 77.1637 1.38389 77.5797 1.76789C77.9957 2.13589 78.2037 2.61589 78.2037 3.20789ZM77.6757 18.9999H74.3397V6.18389H77.6757V18.9999Z" fill="white"/>
<path d="M55.5975 18.9998H52.2615V6.18385H55.3335V8.00785C56.3255 6.63185 57.6055 5.94385 59.1735 5.94385C60.9975 5.94385 62.2455 6.70385 62.9175 8.22385C64.0055 6.70385 65.4135 5.94385 67.1415 5.94385C68.4695 5.94385 69.5255 6.36785 70.3095 7.21585C71.0935 8.04785 71.4855 9.21585 71.4855 10.7198V18.9998H68.1735V11.7758C68.1735 10.8638 67.9815 10.1598 67.5975 9.66385C67.2135 9.15185 66.6615 8.89585 65.9415 8.89585C65.2535 8.89585 64.6775 9.15985 64.2135 9.68785C63.7655 10.1998 63.5415 10.9198 63.5415 11.8478V18.9998H60.2295V11.7758C60.2295 10.8638 60.0375 10.1598 59.6535 9.66385C59.2695 9.15185 58.7175 8.89585 57.9975 8.89585C57.2935 8.89585 56.7175 9.15985 56.2695 9.68785C55.8215 10.1998 55.5975 10.9198 55.5975 11.8478V18.9998Z" fill="white"/>
<path d="M49.8209 3.20789C49.8209 3.78389 49.6129 4.25589 49.1969 4.62389C48.7809 4.99189 48.2449 5.17589 47.5889 5.17589C46.9489 5.17589 46.4209 4.99189 46.0049 4.62389C45.5889 4.23989 45.3809 3.76789 45.3809 3.20789C45.3809 2.61589 45.5889 2.13589 46.0049 1.76789C46.4209 1.38389 46.9489 1.19189 47.5889 1.19189C48.2449 1.19189 48.7809 1.38389 49.1969 1.76789C49.6129 2.13589 49.8209 2.61589 49.8209 3.20789ZM49.2929 18.9999H45.9569V6.18389H49.2929V18.9999Z" fill="white"/>
<path d="M43.7998 15.7601V18.6641C43.0318 19.0481 42.1758 19.2401 41.2318 19.2401C39.8878 19.2401 38.8318 18.8641 38.0638 18.1121C37.3118 17.3601 36.9357 16.2721 36.9357 14.8481V9.04009H34.3438V6.18409H36.9357V2.39209H40.2477V6.18409H43.9198V9.04009H40.2477V14.0801C40.2477 15.4721 40.8718 16.1681 42.1198 16.1681C42.7438 16.1681 43.3038 16.0321 43.7998 15.7601Z" fill="white"/>
<path d="M32.2507 7.83985C33.3067 9.08785 33.8347 10.6718 33.8347 12.5918C33.8347 14.5118 33.3067 16.1038 32.2507 17.3678C31.2107 18.6158 29.8427 19.2398 28.1467 19.2398C26.6107 19.2398 25.3547 18.6078 24.3787 17.3438V23.6318H21.0427V6.18385H24.1147V8.05585C25.1227 6.64785 26.4667 5.94385 28.1467 5.94385C29.8427 5.94385 31.2107 6.57585 32.2507 7.83985ZM30.4027 12.5918C30.4027 11.4398 30.1147 10.5358 29.5387 9.87985C28.9627 9.22385 28.2507 8.89585 27.4027 8.89585C26.5387 8.89585 25.8187 9.22385 25.2427 9.87985C24.6827 10.5198 24.4027 11.4238 24.4027 12.5918C24.4027 13.7598 24.6827 14.6638 25.2427 15.3038C25.8187 15.9438 26.5387 16.2638 27.4027 16.2638C28.2667 16.2638 28.9787 15.9438 29.5387 15.3038C30.1147 14.6638 30.4027 13.7598 30.4027 12.5918Z" fill="white"/>
<path d="M9.95888 19.3602C7.46288 19.3602 5.36688 18.5042 3.67088 16.7922C1.99088 15.0802 1.15088 12.9362 1.15088 10.3602C1.15088 7.8002 1.99088 5.6722 3.67088 3.9762C5.36688 2.2642 7.46288 1.4082 9.95888 1.4082C12.4709 1.4082 14.5749 2.2642 16.2709 3.9762C17.9669 5.6722 18.8149 7.8002 18.8149 10.3602C18.8149 12.9362 17.9669 15.0802 16.2709 16.7922C14.5749 18.5042 12.4709 19.3602 9.95888 19.3602ZM6.26288 14.4642C7.19088 15.5522 8.42288 16.0962 9.95888 16.0962C11.4949 16.0962 12.7269 15.5522 13.6549 14.4642C14.5829 13.3602 15.0469 11.9922 15.0469 10.3602C15.0469 8.7282 14.5829 7.3762 13.6549 6.3042C12.7429 5.2162 11.5109 4.6722 9.95888 4.6722C8.42288 4.6722 7.19088 5.2162 6.26288 6.3042C5.35088 7.3762 4.89488 8.7282 4.89488 10.3602C4.89488 11.9922 5.35088 13.3602 6.26288 14.4642Z" fill="white"/>
</svg>
