<svg width="50" height="34" viewBox="0 0 50 34" fill="none" xmlns="http://www.w3.org/2000/svg">
<path d="M15.1969 2.80546C14.459 4.30191 10.7417 11.7334 6.91515 19.2918C3.11592 26.8755 0 33.1403 0 33.191C0 33.2418 2.56927 33.2925 5.68518 33.2925H11.3704L11.8897 32.3287C12.163 31.8214 14.6503 26.9009 17.4109 21.397L22.4401 11.3783L19.6248 5.72227C18.0669 2.62791 16.7549 0.0915549 16.6729 0.0661913C16.5909 0.0661913 15.9349 1.30901 15.1969 2.80546Z" fill="#050E15"/>
<path d="M37.4843 2.14574C36.9103 3.31246 34.4503 8.20763 32.0177 13.0521L27.6172 21.8532L30.4051 27.4332C31.9357 30.5276 33.275 33.0386 33.3844 33.0386C33.4664 33.0386 33.9857 32.1508 34.5323 31.0602C35.0517 29.9949 38.5229 23.0453 42.2401 15.6645C45.9574 8.25836 49.2373 1.73992 49.5106 1.13119L50.0026 0.0659224H44.2628H38.5229L37.4843 2.14574Z" fill="#050E15"/>
</svg>
