<svg width="177" height="177" viewBox="0 0 177 177" fill="none" xmlns="http://www.w3.org/2000/svg">
<g clip-path="url(#clip0_479_3401)">
<g clip-path="url(#clip1_479_3401)">
<path d="M89.2832 145.633L88.3594 146.002L87.4365 145.633L88.3594 143.325L89.2832 145.633ZM135.588 50.7158L88.3594 36.5479L41.1309 50.7158V88.6387C41.1309 104.812 52.7195 117.837 64.9941 127.043C71.0673 131.598 77.1559 135.101 81.7334 137.466C84.0188 138.647 85.9203 139.54 87.2441 140.136C87.6813 140.332 88.0556 140.496 88.3594 140.627C88.6633 140.496 89.0381 140.333 89.4756 140.136C90.7995 139.54 92.7008 138.647 94.9863 137.466C99.5639 135.101 105.652 131.598 111.726 127.043C124 117.837 135.588 104.811 135.588 88.6387V50.7158ZM140.56 88.6387C140.56 107.266 127.29 121.584 114.708 131.021C108.353 135.787 102.012 139.432 97.2686 141.883C94.8936 143.11 92.9104 144.041 91.5156 144.669C90.8181 144.983 90.2669 145.221 89.8867 145.382C89.697 145.462 89.5499 145.524 89.4482 145.565C89.3974 145.586 89.3577 145.603 89.3301 145.614C89.3165 145.62 89.3057 145.624 89.2979 145.627C89.294 145.629 89.2905 145.63 89.2881 145.631C89.287 145.631 89.2858 145.632 89.2852 145.632L88.3594 143.325L87.4346 145.632C87.4339 145.632 87.4327 145.631 87.4316 145.631C87.4292 145.63 87.4258 145.629 87.4219 145.627C87.4141 145.624 87.4032 145.62 87.3896 145.614C87.362 145.603 87.3223 145.586 87.2715 145.565C87.1698 145.524 87.022 145.462 86.832 145.382C86.4519 145.221 85.9004 144.983 85.2031 144.669C83.8084 144.041 81.8258 143.11 79.4512 141.883C74.7073 139.432 68.3662 135.787 62.0107 131.021C49.4284 121.584 36.1602 107.266 36.1602 88.6387V47.0176L88.3594 31.3584L140.56 47.0176V88.6387Z" fill="#FAFAF9"/>
<path d="M114.246 73.7246L85.874 102.097L69.9297 86.1533L73.4453 82.6377L85.874 95.0664L110.731 70.209L114.246 73.7246Z" fill="#FAFAF9"/>
</g>
</g>
<defs>
<clipPath id="clip0_479_3401">
<rect width="176" height="176" fill="white" transform="translate(0.359375 0.660156)"/>
</clipPath>
<clipPath id="clip1_479_3401">
<rect width="104.4" height="116" fill="white" transform="translate(36.1602 30.6602)"/>
</clipPath>
</defs>
</svg>
