<svg width="40" height="40" viewBox="0 0 40 40" fill="none" xmlns="http://www.w3.org/2000/svg">
<path d="M10.368 40H10.3615C8.48152 39.9844 6.62923 39.5457 4.94206 38.7163C4.15987 38.3177 3.44843 37.7934 2.8361 37.1643C2.20698 36.5521 1.68265 35.8408 1.28406 35.0587C0.455213 33.3732 0.016349 31.5228 0 29.6446L0 29.6322H0.862247C2.46267 29.7099 4.02531 30.1454 5.43526 30.9066C6.20582 31.3237 6.9146 31.8461 7.54122 32.4586C8.15355 33.0853 8.67588 33.7941 9.09326 34.5645C9.85487 35.9745 10.2909 37.5372 10.3694 39.1378L10.368 40ZM0 25.3976H14.1581C14.2165 25.3976 14.2743 25.4091 14.3282 25.4314C14.3822 25.4538 14.4312 25.4865 14.4725 25.5278C14.5137 25.5691 14.5465 25.6181 14.5688 25.672C14.5912 25.726 14.6027 25.7838 14.6027 25.8421V40H20.0066V30.8096C20.0066 24.0742 16.0123 19.9934 9.19052 19.9934H0V25.3976ZM0 15.4009H24.1547C24.2726 15.4009 24.3856 15.4477 24.469 15.5311C24.5524 15.6144 24.5992 15.7275 24.5992 15.8454V40H30.0034V20.2818C30.0034 18.9311 29.7374 17.5936 29.2205 16.3458C28.7036 15.0979 27.946 13.9641 26.9909 13.009C26.0357 12.054 24.9019 11.2964 23.654 10.7795C22.4061 10.2627 21.0686 9.99668 19.7179 9.99672H0V15.4009ZM34.5961 5.84732V39.9986H40V9.7515C40 3.51791 36.6828 0 30.2476 0H0V5.40413H34.1515C34.2099 5.40413 34.2677 5.41563 34.3217 5.43797C34.3756 5.46031 34.4246 5.49306 34.4659 5.53434C34.5072 5.57562 34.5399 5.62463 34.5623 5.67857C34.5846 5.7325 34.5961 5.79031 34.5961 5.8487V5.84732Z" fill="black"/>
</svg>
